G04 --- HEADER BEGIN --- *
%TF.GenerationSoftware,LibrePCB,LibrePCB,0.1.3*%
%TF.CreationDate,2019-12-12T00:41:35*%
%TF.ProjectId,Nixie Counter - default,cfaec193-39cb-4766-881d-db9368be8cff,v1*%
%TF.Part,Single*%
%FSLAX66Y66*%
%MOMM*%
G01*
G74*
G04 --- HEADER END --- *
G04 --- APERTURE LIST BEGIN --- *
%ADD10C,0.2*%
%ADD11C,3.2*%
%ADD12O,1.47X2.74*%
%ADD13R,1.47X2.74*%
%ADD14O,1.787X2.39*%
%ADD15R,1.787X2.39*%
%ADD16C,2.1*%
%ADD17O,4.2X3.2*%
%ADD18O,1.7X2.74*%
%ADD19C,5.0*%
G04 --- APERTURE LIST END --- *
G04 --- BOARD BEGIN --- *
D10*
X64038770Y46758192D02*
X63990992Y46852636D01*
X63990992Y46995970D01*
X64038770Y47139303D01*
X64134325Y47233747D01*
X64228770Y47281525D01*
X64419881Y47329303D01*
X64562103Y47329303D01*
X64753214Y47281525D01*
X64847659Y47233747D01*
X64943214Y47139303D01*
X64990992Y46995970D01*
X64990992Y46900414D01*
X64943214Y46758192D01*
X64895436Y46710414D01*
X64562103Y46710414D01*
X64562103Y46900414D01*
X64990992Y46310414D02*
X63990992Y46310414D01*
X64990992Y45739303D01*
X63990992Y45739303D01*
X64990992Y45339303D02*
X63990992Y45339303D01*
X63990992Y45101525D01*
X64038770Y44958192D01*
X64134325Y44862636D01*
X64228770Y44815970D01*
X64419881Y44768192D01*
X64562103Y44768192D01*
X64753214Y44815970D01*
X64847659Y44862636D01*
X64943214Y44958192D01*
X64990992Y45101525D01*
X64990992Y45339303D01*
X67483214Y48252636D02*
X67530992Y48109303D01*
X67530992Y47871525D01*
X67483214Y47775969D01*
X67435436Y47729303D01*
X67340992Y47681525D01*
X67245436Y47681525D01*
X67149881Y47729303D01*
X67102103Y47775969D01*
X67054325Y47871525D01*
X67007659Y48062636D01*
X66959881Y48157080D01*
X66912103Y48204858D01*
X66816548Y48252636D01*
X66720992Y48252636D01*
X66626548Y48204858D01*
X66578770Y48157080D01*
X66530992Y48062636D01*
X66530992Y47823747D01*
X66578770Y47681525D01*
X67530992Y47281525D02*
X66530992Y47281525D01*
X67007659Y47281525D02*
X67007659Y46710414D01*
X67530992Y46710414D02*
X66530992Y46710414D01*
X67530992Y46310414D02*
X66530992Y46310414D01*
X66530992Y46072636D01*
X66578770Y45929303D01*
X66674325Y45833747D01*
X66768770Y45787081D01*
X66959881Y45739303D01*
X67102103Y45739303D01*
X67293214Y45787081D01*
X67387659Y45833747D01*
X67483214Y45929303D01*
X67530992Y46072636D01*
X67530992Y46310414D01*
X67530992Y45339303D02*
X66530992Y45339303D01*
X67530992Y44768192D01*
X66530992Y44768192D01*
X70070992Y52224858D02*
X70070992Y52795969D01*
X70070992Y52510413D02*
X69070992Y52510413D01*
X69214325Y52605969D01*
X69308770Y52700413D01*
X69356548Y52795969D01*
X69166548Y51777080D02*
X69118770Y51729302D01*
X69070992Y51634858D01*
X69070992Y51395969D01*
X69118770Y51301525D01*
X69166548Y51253747D01*
X69260992Y51205969D01*
X69356548Y51205969D01*
X69499881Y51253747D01*
X70070992Y51824858D01*
X70070992Y51205969D01*
X69689881Y50805969D02*
X69689881Y50043747D01*
X69166548Y49595969D02*
X69118770Y49548191D01*
X69070992Y49453747D01*
X69070992Y49214858D01*
X69118770Y49120414D01*
X69166548Y49072636D01*
X69260992Y49024858D01*
X69356548Y49024858D01*
X69499881Y49072636D01*
X70070992Y49643747D01*
X70070992Y49024858D01*
X69404325Y48148191D02*
X70070992Y48148191D01*
X69023214Y48387080D02*
X69737659Y48624858D01*
X69737659Y48005969D01*
X69070992Y47605969D02*
X70070992Y47272636D01*
X69070992Y46939302D01*
X70070992Y45739303D02*
X69070992Y45739303D01*
X70070992Y45339303D02*
X69070992Y45339303D01*
X70070992Y44768192D01*
X69070992Y44768192D01*
X64588770Y63882081D02*
X64540992Y63976525D01*
X64540992Y64119859D01*
X64588770Y64263192D01*
X64684325Y64357636D01*
X64778770Y64405414D01*
X64969881Y64453192D01*
X65112103Y64453192D01*
X65303214Y64405414D01*
X65397659Y64357636D01*
X65493214Y64263192D01*
X65540992Y64119859D01*
X65540992Y64024303D01*
X65493214Y63882081D01*
X65445436Y63834303D01*
X65112103Y63834303D01*
X65112103Y64024303D01*
X65540992Y63434303D02*
X64540992Y63434303D01*
X65540992Y62863192D01*
X64540992Y62863192D01*
X65540992Y62463192D02*
X64540992Y62463192D01*
X64540992Y62225414D01*
X64588770Y62082081D01*
X64684325Y61986525D01*
X64778770Y61939859D01*
X64969881Y61892081D01*
X65112103Y61892081D01*
X65303214Y61939859D01*
X65397659Y61986525D01*
X65493214Y62082081D01*
X65540992Y62225414D01*
X65540992Y62463192D01*
X67509881Y64263192D02*
X67462103Y64357636D01*
X67414325Y64405414D01*
X67318770Y64453192D01*
X67270992Y64453192D01*
X67176548Y64405414D01*
X67128770Y64357636D01*
X67080992Y64263192D01*
X67080992Y64072081D01*
X67128770Y63976525D01*
X67176548Y63929859D01*
X67270992Y63882081D01*
X67318770Y63882081D01*
X67414325Y63929859D01*
X67462103Y63976525D01*
X67509881Y64072081D01*
X67509881Y64263192D01*
X67557659Y64357636D01*
X67604325Y64405414D01*
X67699881Y64453192D01*
X67890992Y64453192D01*
X67985436Y64405414D01*
X68033214Y64357636D01*
X68080992Y64263192D01*
X68080992Y64072081D01*
X68033214Y63976525D01*
X67985436Y63929859D01*
X67890992Y63882081D01*
X67699881Y63882081D01*
X67604325Y63929859D01*
X67557659Y63976525D01*
X67509881Y64072081D01*
X67080992Y62958748D02*
X67080992Y63434303D01*
X67557659Y63482081D01*
X67509881Y63434303D01*
X67462103Y63338748D01*
X67462103Y63100970D01*
X67509881Y63005414D01*
X67557659Y62958748D01*
X67652103Y62910970D01*
X67890992Y62910970D01*
X67985436Y62958748D01*
X68033214Y63005414D01*
X68080992Y63100970D01*
X68080992Y63338748D01*
X68033214Y63434303D01*
X67985436Y63482081D01*
X67699881Y62510970D02*
X67699881Y61748748D01*
X67176548Y61300970D02*
X67128770Y61253192D01*
X67080992Y61158748D01*
X67080992Y60919859D01*
X67128770Y60825415D01*
X67176548Y60777637D01*
X67270992Y60729859D01*
X67366548Y60729859D01*
X67509881Y60777637D01*
X68080992Y61348748D01*
X68080992Y60729859D01*
X67080992Y60329859D02*
X67080992Y59710970D01*
X67462103Y60044303D01*
X67462103Y59900970D01*
X67509881Y59806526D01*
X67557659Y59758748D01*
X67652103Y59710970D01*
X67890992Y59710970D01*
X67985436Y59758748D01*
X68033214Y59806526D01*
X68080992Y59900970D01*
X68080992Y60186526D01*
X68033214Y60282081D01*
X67985436Y60329859D01*
X67080992Y58787637D02*
X67080992Y59263192D01*
X67557659Y59310970D01*
X67509881Y59263192D01*
X67462103Y59167637D01*
X67462103Y58929859D01*
X67509881Y58834303D01*
X67557659Y58787637D01*
X67652103Y58739859D01*
X67890992Y58739859D01*
X67985436Y58787637D01*
X68033214Y58834303D01*
X68080992Y58929859D01*
X68080992Y59167637D01*
X68033214Y59263192D01*
X67985436Y59310970D01*
X67080992Y58339859D02*
X68080992Y58006526D01*
X67080992Y57673192D01*
X67080992Y56235415D02*
X67080992Y56044304D01*
X67128770Y55949860D01*
X67224325Y55854304D01*
X67414325Y55806526D01*
X67747659Y55806526D01*
X67937659Y55854304D01*
X68033214Y55949860D01*
X68080992Y56044304D01*
X68080992Y56235415D01*
X68033214Y56329860D01*
X67937659Y56425415D01*
X67747659Y56473193D01*
X67414325Y56473193D01*
X67224325Y56425415D01*
X67128770Y56329860D01*
X67080992Y56235415D01*
X67414325Y54977637D02*
X68080992Y54977637D01*
X67414325Y55406526D02*
X67937659Y55406526D01*
X68033214Y55358748D01*
X68080992Y55263193D01*
X68080992Y55120970D01*
X68033214Y55025415D01*
X67985436Y54977637D01*
X67414325Y54577637D02*
X67414325Y54196526D01*
X67080992Y54434304D02*
X67937659Y54434304D01*
X68033214Y54387637D01*
X68080992Y54292081D01*
X68080992Y54196526D01*
%LPC*%
D11*
X19240000Y12320000D03*
X20990000Y20320000D03*
X19240000Y28320000D03*
X15240000Y11320000D03*
X20990000Y15820000D03*
X11240000Y12320000D03*
X9490000Y24820000D03*
X9490000Y20320000D03*
X11240000Y28320000D03*
X9490000Y15820000D03*
X15240000Y29320000D03*
X20990000Y24820000D03*
D12*
X36830000Y48259984D03*
X49530000Y40639984D03*
X34290000Y40639984D03*
D13*
X49530000Y48259984D03*
D12*
X34290000Y48259984D03*
X44450000Y48259984D03*
X46990000Y48259984D03*
X44450000Y40639984D03*
X31750000Y48259984D03*
X41910000Y40639984D03*
X46990000Y40639984D03*
X39370000Y48259984D03*
X39370000Y40639984D03*
X41910000Y48259984D03*
X36830000Y40639984D03*
X31750000Y40639984D03*
D14*
X56515760Y6985104D03*
X59055760Y9525104D03*
X64135760Y9525104D03*
X61595760Y9525104D03*
X64135760Y6985104D03*
X59055760Y6985104D03*
X61595760Y6985104D03*
D15*
X56515760Y9525104D03*
D16*
X15240000Y58420000D03*
X40640000Y58420000D03*
X50800000Y58420000D03*
X45720000Y58420000D03*
X30480000Y73660000D03*
X45720000Y73660000D03*
X27940000Y58420000D03*
X7620000Y58420000D03*
X17780000Y58420000D03*
X53340000Y73660000D03*
X27940000Y73660000D03*
X35560000Y58420000D03*
X5080000Y73660000D03*
X35560000Y73660000D03*
X43180000Y58420000D03*
X25400000Y73660000D03*
X5080000Y58420000D03*
X50800000Y73660000D03*
X30480000Y58420000D03*
X33020000Y73660000D03*
X17780000Y73660000D03*
X12700000Y58420000D03*
X20320000Y58420000D03*
X10160000Y73660000D03*
X38100000Y58420000D03*
X40640000Y73660000D03*
X53340000Y58420000D03*
X22860000Y58420000D03*
X25400000Y58420000D03*
X48260000Y73660000D03*
X43180000Y73660000D03*
X38100000Y73660000D03*
X10160000Y58420000D03*
X15240000Y73660000D03*
X20320000Y73660000D03*
X12700000Y73660000D03*
X33020000Y58420000D03*
X7620000Y73660000D03*
X22860000Y73660000D03*
X48260000Y58420000D03*
D11*
X44640000Y12320000D03*
X46390000Y20320000D03*
X44640000Y28320000D03*
X40640000Y11320000D03*
X46390000Y15820000D03*
X36640000Y12320000D03*
X34890000Y24820000D03*
X34890000Y20320000D03*
X36640000Y28320000D03*
X34890000Y15820000D03*
X40640000Y29320000D03*
X46390000Y24820000D03*
D12*
X11430000Y48259984D03*
X24130000Y40639984D03*
X8890000Y40639984D03*
D13*
X24130000Y48259984D03*
D12*
X8890000Y48259984D03*
X19050000Y48259984D03*
X21590000Y48259984D03*
X19050000Y40639984D03*
X6350000Y48259984D03*
X16510000Y40639984D03*
X21590000Y40639984D03*
X13970000Y48259984D03*
X13970000Y40639984D03*
X16510000Y48259984D03*
X11430000Y40639984D03*
X6350000Y40639984D03*
D17*
X76199936Y15620000D03*
X76199936Y25020000D03*
X76199936Y20320000D03*
D18*
X67030992Y42428192D03*
X69570992Y42428192D03*
X65040992Y66928192D03*
X67580992Y66928192D03*
X64490992Y42428192D03*
D19*
X92311168Y10160064D03*
X88811168Y14960064D03*
X85811168Y10160064D03*
G04 --- BOARD END --- *
%TF.MD5,8fcdd4c34be556a907fb1965dc858fd1*%
M02*
