M48
;DRILL FILE
;Generated by LibrePCB 0.1.3-unstable
;Creation Date: 2019-11-29T11:35:02
FMAT,2
METRIC,TZ
T1C0.3
T2C0.5
T3C0.8
T4C1.0
T5C1.2
T6C2.3
T7C3.0
%
G90
G05
M71
T1
X67.945Y34.925
X73.66Y29.21
X24.13Y76.2
X76.2Y38.1
X70.485Y78.74
X58.42Y68.58
X25.4Y76.2
X76.2Y32.385
X59.69Y68.58
X69.215Y26.67
X67.945Y37.465
X71.755Y78.74
X24.13Y71.12
X74.295Y28.575
X22.86Y76.2
X67.945Y36.195
X63.5Y74.295
X73.025Y78.74
X25.4Y71.12
X76.2Y40.64
X69.215Y27.94
X76.2Y33.655
X76.2Y39.37
X64.77Y74.295
X69.215Y25.4
X22.86Y71.12
X62.23Y74.295
T2
X57.94375Y54.45125
X52.07Y52.54625
X61.2775Y44.45
X57.15072Y34.290424
T3
X6.35Y40.639984
X11.43Y40.639984
X16.51Y48.259984
X13.97Y40.639984
X13.97Y48.259984
X21.59Y40.639984
X16.51Y40.639984
X6.35Y48.259984
X19.05Y40.639984
X21.59Y48.259984
X19.05Y48.259984
X8.89Y48.259984
X24.13Y48.259984
X8.89Y40.639984
X24.13Y40.639984
X11.43Y48.259984
X48.26Y58.42
X22.86Y73.66
X7.62Y73.66
X33.02Y58.42
X12.7Y73.66
X20.32Y73.66
X15.24Y73.66
X10.16Y58.42
X38.1Y73.66
X43.18Y73.66
X48.26Y73.66
X25.4Y58.42
X22.86Y58.42
X53.34Y58.42
X40.64Y73.66
X38.1Y58.42
X10.16Y73.66
X20.32Y58.42
X12.7Y58.42
X17.78Y73.66
X33.02Y73.66
X30.48Y58.42
X50.8Y73.66
X5.08Y58.42
X25.4Y73.66
X43.18Y58.42
X35.56Y73.66
X5.08Y73.66
X35.56Y58.42
X27.94Y73.66
X53.34Y73.66
X17.78Y58.42
X7.62Y58.42
X27.94Y58.42
X45.72Y73.66
X30.48Y73.66
X45.72Y58.42
X50.8Y58.42
X40.64Y58.42
X15.24Y58.42
X31.75Y40.639984
X36.83Y40.639984
X41.91Y48.259984
X39.37Y40.639984
X39.37Y48.259984
X46.99Y40.639984
X41.91Y40.639984
X31.75Y48.259984
X44.45Y40.639984
X46.99Y48.259984
X44.45Y48.259984
X34.29Y48.259984
X49.53Y48.259984
X34.29Y40.639984
X49.53Y40.639984
X36.83Y48.259984
T4
X64.490992Y42.428192
X67.580992Y66.928192
X65.040992Y66.928192
X69.570992Y42.428192
X67.030992Y42.428192
X56.51576Y9.525104
X61.59576Y6.985104
X59.05576Y6.985104
X64.13576Y6.985104
X61.59576Y9.525104
X64.13576Y9.525104
X59.05576Y9.525104
X56.51576Y6.985104
T5
X46.39Y24.82
X40.64Y29.32
X34.89Y15.82
X36.64Y28.32
X34.89Y20.32
X34.89Y24.82
X36.64Y12.32
X46.39Y15.82
X40.64Y11.32
X44.64Y28.32
X46.39Y20.32
X44.64Y12.32
X20.99Y24.82
X15.24Y29.32
X9.49Y15.82
X11.24Y28.32
X9.49Y20.32
X9.49Y24.82
X11.24Y12.32
X20.99Y15.82
X15.24Y11.32
X19.24Y28.32
X20.99Y20.32
X19.24Y12.32
T6
X76.199936Y20.32
X76.199936Y25.02
X76.199936Y15.62
T7
X85.811168Y10.160064
X88.811168Y14.960064
X92.311168Y10.160064
T0
M30
