G04 --- HEADER BEGIN --- *
G04 #@! TF.GenerationSoftware,LibrePCB,LibrePCB,1.1.0*
G04 #@! TF.CreationDate,2024-11-03T19:05:04*
G04 #@! TF.ProjectId,Nixie Counter,cfaec193-39cb-4766-881d-db9368be8cff,v2.0*
G04 #@! TF.Part,Single*
G04 #@! TF.SameCoordinates*
G04 #@! TF.FileFunction,Soldermask,Bot*
G04 #@! TF.FilePolarity,Negative*
%FSLAX66Y66*%
%MOMM*%
G01*
G75*
G04 --- HEADER END --- *
G04 --- APERTURE LIST BEGIN --- *
%AMROUNDEDRECT10*20,1,1.45,-0.825,0.0,0.825,0.0,0.0*20,1,1.25,-0.925,0.0,0.925,0.0,0.0*1,1,0.2,-0.825,0.625*1,1,0.2,0.825,0.625*1,1,0.2,0.825,-0.625*1,1,0.2,-0.825,-0.625*%
%ADD10ROUNDEDRECT10*%
%ADD11C,3.2*%
%ADD12C,5.2*%
%ADD13O,1.47X2.74*%
%AMROUNDEDRECT14*20,1,1.47,-1.27,0.0,1.27,0.0,90.0*20,1,1.27,-1.37,0.0,1.37,0.0,90.0*1,1,0.2,-0.635,-1.27*1,1,0.2,-0.635,1.27*1,1,0.2,0.635,1.27*1,1,0.2,0.635,-1.27*%
%ADD14ROUNDEDRECT14*%
%ADD15O,4.2X3.2*%
%ADD16O,1.5X2.7*%
%ADD17O,1.7X2.74*%
%ADD18C,5.0*%
%ADD19C,2.7*%
G04 --- APERTURE LIST END --- *
G04 --- BOARD BEGIN --- *
D10*
G04 #@! TO.C,R5*
X50165000Y11050000D03*
X50165000Y8000000D03*
D11*
G04 #@! TO.C,DS1*
X19240000Y28320000D03*
X20990000Y20320000D03*
X19240000Y12320000D03*
X15240000Y29320000D03*
X20990000Y24820000D03*
X11240000Y28320000D03*
X9490000Y15820000D03*
X9490000Y20320000D03*
X11240000Y12320000D03*
X9490000Y24820000D03*
X15240000Y11320000D03*
X20990000Y15820000D03*
D12*
G04 #@! TD*
X15240000Y20320000D03*
D13*
G04 #@! TO.C,U4*
X36830000Y48259984D03*
X49530000Y40639984D03*
X34290000Y40639984D03*
D14*
X49530000Y48259984D03*
D13*
X34290000Y48259984D03*
X44450000Y48259984D03*
X46990000Y48259984D03*
X44450000Y40639984D03*
X31750000Y48259984D03*
X41910000Y40639984D03*
X46990000Y40639984D03*
X39370000Y48259984D03*
X39370000Y40639984D03*
X41910000Y48259984D03*
X36830000Y40639984D03*
X31750000Y40639984D03*
D11*
G04 #@! TO.C,DS2*
X44640000Y28320000D03*
X46390000Y20320000D03*
X44640000Y12320000D03*
X40640000Y29320000D03*
X46390000Y24820000D03*
X36640000Y28320000D03*
X34890000Y15820000D03*
X34890000Y20320000D03*
X36640000Y12320000D03*
X34890000Y24820000D03*
X40640000Y11320000D03*
X46390000Y15820000D03*
D12*
G04 #@! TD*
X40640000Y20320000D03*
D13*
G04 #@! TO.C,U3*
X11430000Y48259984D03*
X24130000Y40639984D03*
X8890000Y40639984D03*
D14*
X24130000Y48259984D03*
D13*
X8890000Y48259984D03*
X19050000Y48259984D03*
X21590000Y48259984D03*
X19050000Y40639984D03*
X6350000Y48259984D03*
X16510000Y40639984D03*
X21590000Y40639984D03*
X13970000Y48259984D03*
X13970000Y40639984D03*
X16510000Y48259984D03*
X11430000Y40639984D03*
X6350000Y40639984D03*
D15*
G04 #@! TO.C,S1*
X76199936Y15620000D03*
X76199936Y25020000D03*
X76199936Y20320000D03*
D16*
G04 #@! TO.C,U5*
X35560000Y58460000D03*
X20320000Y76240000D03*
X43180000Y76240000D03*
X38100000Y58460000D03*
X30480000Y76240000D03*
X40640000Y58460000D03*
X30480000Y58460000D03*
X43180000Y58460000D03*
X35560000Y76240000D03*
X33020000Y76240000D03*
X25400000Y58460000D03*
X27940000Y58460000D03*
X38100000Y76240000D03*
X22860000Y58460000D03*
X22860000Y76240000D03*
X40640000Y76240000D03*
X25400000Y76240000D03*
X33020000Y58460000D03*
X20320000Y58460000D03*
X17780000Y58460000D03*
X27940000Y76240000D03*
X15240000Y58460000D03*
D17*
G04 #@! TO.C,U1*
X67030992Y42428192D03*
X69570992Y42428192D03*
X65040992Y66928192D03*
X67580992Y66928192D03*
X64490992Y42428192D03*
D10*
G04 #@! TO.C,R4*
X24765000Y11050000D03*
X24765000Y8000000D03*
D18*
G04 #@! TO.C,J1*
X92311168Y10160064D03*
X88811168Y14960064D03*
X85811168Y10160064D03*
D19*
G04 #@! TD*
X97000000Y3000000D03*
X3000000Y3000000D03*
X58000000Y73660000D03*
G04 --- BOARD END --- *
G04 #@! TF.MD5,375e13eedf54bca8c22aed1842c271fa*
M02*
