M48
; #@! TF.GenerationSoftware,LibrePCB,LibrePCB,1.1.0
; #@! TF.CreationDate,2024-11-03T19:05:04
; #@! TF.ProjectId,Nixie Counter,cfaec193-39cb-4766-881d-db9368be8cff,v2.0
; #@! TF.Part,Single
; #@! TF.SameCoordinates
; #@! TF.FileFunction,Plated,1,2,PTH
FMAT,2
METRIC,TZ
; #@! TA.AperFunction,ViaDrill
T1C0.3
; #@! TA.AperFunction,ViaDrill
T2C0.5
; #@! TA.AperFunction,ComponentDrill
T3C0.8
; #@! TA.AperFunction,ComponentDrill
T4C0.85
; #@! TA.AperFunction,ComponentDrill
T5C1.0
; #@! TA.AperFunction,ComponentDrill
T6C1.2
; #@! TA.AperFunction,ComponentDrill
T7C2.3
; #@! TA.AperFunction,ComponentDrill
T8C3.0
%
G90
G05
M71
T1
X67.945Y34.925
X76.2Y64.135
X36.195Y72.0725
X76.2Y65.405
X76.2Y38.735
X38.735Y72.0725
X24.765Y24.765
X70.8025Y77.7875
X79.6925Y41.91
X37.465Y72.0725
X72.7075Y29.21
X69.5325Y27.94
X72.7075Y27.94
X67.945Y37.465
X71.59625Y76.99375
X50.165Y24.765
X72.7075Y30.48
X79.6925Y40.64
X67.945Y36.195
X66.04Y75.565
X72.39Y76.2
X79.6925Y65.405
X76.2Y41.275
X79.6925Y64.135
X69.5325Y29.21
X76.2Y40.005
X67.31Y75.565
X69.5325Y26.67
X79.6925Y43.18
X79.6925Y66.675
X76.2Y66.675
X64.77Y75.565
T2
X40.64Y71.12
X57.15072Y25.400424
T3
X6.35Y40.639984
X11.43Y40.639984
X16.51Y48.259984
X13.97Y40.639984
X13.97Y48.259984
X21.59Y40.639984
X16.51Y40.639984
X6.35Y48.259984
X19.05Y40.639984
X21.59Y48.259984
X19.05Y48.259984
X8.89Y48.259984
X24.13Y48.259984
X8.89Y40.639984
X24.13Y40.639984
X11.43Y48.259984
X31.75Y40.639984
X36.83Y40.639984
X41.91Y48.259984
X39.37Y40.639984
X39.37Y48.259984
X46.99Y40.639984
X41.91Y40.639984
X31.75Y48.259984
X44.45Y40.639984
X46.99Y48.259984
X44.45Y48.259984
X34.29Y48.259984
X49.53Y48.259984
X34.29Y40.639984
X49.53Y40.639984
X36.83Y48.259984
T4
X15.24Y58.46
X27.94Y76.24
X17.78Y58.46
X20.32Y58.46
X33.02Y58.46
X25.4Y76.24
X40.64Y76.24
X22.86Y76.24
X22.86Y58.46
X38.1Y76.24
X27.94Y58.46
X25.4Y58.46
X33.02Y76.24
X35.56Y76.24
X43.18Y58.46
X30.48Y58.46
X40.64Y58.46
X30.48Y76.24
X38.1Y58.46
X43.18Y76.24
X20.32Y76.24
X35.56Y58.46
T5
X64.490992Y42.428192
X67.580992Y66.928192
X65.040992Y66.928192
X69.570992Y42.428192
X67.030992Y42.428192
T6
X46.39Y15.82
X40.64Y11.32
X34.89Y24.82
X36.64Y12.32
X34.89Y20.32
X34.89Y15.82
X36.64Y28.32
X46.39Y24.82
X40.64Y29.32
X44.64Y12.32
X46.39Y20.32
X44.64Y28.32
X20.99Y15.82
X15.24Y11.32
X9.49Y24.82
X11.24Y12.32
X9.49Y20.32
X9.49Y15.82
X11.24Y28.32
X20.99Y24.82
X15.24Y29.32
X19.24Y12.32
X20.99Y20.32
X19.24Y28.32
T7
X76.199936Y20.32
X76.199936Y25.02
X76.199936Y15.62
T8
X85.811168Y10.160064
X88.811168Y14.960064
X92.311168Y10.160064
T0
M30
