G04 --- HEADER BEGIN --- *
G04 #@! TF.GenerationSoftware,LibrePCB,LibrePCB,1.1.0*
G04 #@! TF.CreationDate,2024-11-03T19:05:04*
G04 #@! TF.ProjectId,Nixie Counter,cfaec193-39cb-4766-881d-db9368be8cff,v2.0*
G04 #@! TF.Part,Single*
G04 #@! TF.SameCoordinates*
G04 #@! TF.FileFunction,Legend,Top*
G04 #@! TF.FilePolarity,Positive*
%FSLAX66Y66*%
%MOMM*%
G01*
G75*
G04 --- HEADER END --- *
G04 --- APERTURE LIST BEGIN --- *
%ADD10C,0.2*%
%ADD11C,0.01*%
%ADD12C,0.25*%
%ADD13C,3.2*%
%ADD14C,5.2*%
%AMROUNDEDRECT15*20,1,1.15,-0.65,0.0,0.65,0.0,0.0*20,1,0.95,-0.75,0.0,0.75,0.0,0.0*1,1,0.2,-0.65,0.475*1,1,0.2,0.65,0.475*1,1,0.2,0.65,-0.475*1,1,0.2,-0.65,-0.475*%
%ADD15ROUNDEDRECT15*%
%AMROUNDEDRECT16*20,1,1.15,-0.65,0.0,0.65,0.0,90.0*20,1,0.95,-0.75,0.0,0.75,0.0,90.0*1,1,0.2,-0.475,-0.65*1,1,0.2,-0.475,0.65*1,1,0.2,0.475,0.65*1,1,0.2,0.475,-0.65*%
%ADD16ROUNDEDRECT16*%
%AMROUNDEDRECT17*20,1,2.35,-1.625,0.0,1.625,0.0,0.0*20,1,2.15,-1.725,0.0,1.725,0.0,0.0*1,1,0.2,-1.625,1.075*1,1,0.2,1.625,1.075*1,1,0.2,1.625,-1.075*1,1,0.2,-1.625,-1.075*%
%ADD17ROUNDEDRECT17*%
%AMROUNDEDRECT18*20,1,1.15,-0.8375,0.0,0.8375,0.0,90.0*20,1,0.475,-1.175,0.0,1.175,0.0,90.0*1,1,0.675,-0.2375,-0.8375*1,1,0.675,-0.2375,0.8375*1,1,0.675,0.2375,0.8375*1,1,0.675,0.2375,-0.8375*%
%ADD18ROUNDEDRECT18*%
%ADD19O,1.47X2.74*%
%AMROUNDEDRECT20*20,1,1.47,-1.27,0.0,1.27,0.0,90.0*20,1,1.27,-1.37,0.0,1.37,0.0,90.0*1,1,0.2,-0.635,-1.27*1,1,0.2,-0.635,1.27*1,1,0.2,0.635,1.27*1,1,0.2,0.635,-1.27*%
%ADD20ROUNDEDRECT20*%
%AMROUNDEDRECT21*20,1,1.4,-0.6,0.0,0.6,0.0,0.0*20,1,1.2,-0.7,0.0,0.7,0.0,0.0*1,1,0.2,-0.6,0.6*1,1,0.2,0.6,0.6*1,1,0.2,0.6,-0.6*1,1,0.2,-0.6,-0.6*%
%ADD21ROUNDEDRECT21*%
%ADD22O,4.2X3.2*%
%ADD23O,1.5X2.7*%
%ADD24O,1.7X2.74*%
%AMROUNDEDRECT25*20,1,1.55,-1.1,0.0,1.1,0.0,0.0*20,1,1.35,-1.2,0.0,1.2,0.0,0.0*1,1,0.2,-1.1,0.675*1,1,0.2,1.1,0.675*1,1,0.2,1.1,-0.675*1,1,0.2,-1.1,-0.675*%
%ADD25ROUNDEDRECT25*%
%AMROUNDEDRECT26*20,1,1.55,-1.1,0.0,1.1,0.0,90.0*20,1,1.35,-1.2,0.0,1.2,0.0,90.0*1,1,0.2,-0.675,-1.1*1,1,0.2,-0.675,1.1*1,1,0.2,0.675,1.1*1,1,0.2,0.675,-1.1*%
%ADD26ROUNDEDRECT26*%
%ADD27C,5.0*%
%ADD28C,0.3*%
%ADD29C,2.7*%
G04 --- APERTURE LIST END --- *
G04 --- BOARD BEGIN --- *
D10*
G04 #@! TO.C,DS1*
X17240000Y16320000D02*
X18240000Y14320000D01*
X4740000Y29320000D02*
X4740000Y11320000D01*
G03*
X25740000Y11320000I10500000J5235107D01*
G01*
X25740000Y29320000D01*
G03*
X4740000Y29320000I-10500000J-5235107D01*
G01*
D11*
G36*
X17383000Y14859000D02*
X18367000Y14009000D01*
X18368000Y15306000D01*
X17383000Y14859000D01*
G37*
D10*
X12692778Y7255000D02*
X12692778Y8255000D01*
X13092778Y7255000D02*
X13092778Y8255000D01*
X13663889Y7255000D01*
X13663889Y8255000D01*
X14063889Y7636111D02*
X14826111Y7636111D01*
X15797222Y7255000D02*
X15226111Y7255000D01*
X15511667Y7255000D02*
X15511667Y8255000D01*
X15416111Y8111667D01*
X15321667Y8017222D01*
X15226111Y7969444D01*
X16245000Y8159444D02*
X16292778Y8207222D01*
X16387222Y8255000D01*
X16626111Y8255000D01*
X16720555Y8207222D01*
X16768333Y8159444D01*
X16816111Y8065000D01*
X16816111Y7969444D01*
X16768333Y7826111D01*
X16197222Y7255000D01*
X16816111Y7255000D01*
X17549444Y7778333D02*
X17692778Y7731667D01*
X17739444Y7683889D01*
X17787222Y7588333D01*
X17787222Y7445000D01*
X17739444Y7350556D01*
X17692778Y7302778D01*
X17597222Y7255000D01*
X17216111Y7255000D01*
X17216111Y8255000D01*
X17549444Y8255000D01*
X17645000Y8207222D01*
X17692778Y8159444D01*
X17739444Y8065000D01*
X17739444Y7969444D01*
X17692778Y7873889D01*
X17645000Y7826111D01*
X17549444Y7778333D01*
X17216111Y7778333D01*
D12*
G04 #@! TO.C,R2*
X93865000Y22550000D02*
X93865000Y21900000D01*
X95365000Y22550000D02*
X95365000Y21900000D01*
G04 #@! TO.C,R3*
X66286456Y40438000D02*
X65636456Y40438000D01*
X66286456Y38938000D02*
X65636456Y38938000D01*
D10*
G04 #@! TO.C,U2*
X58650720Y16565360D02*
X57850720Y16565360D01*
X60175720Y16565360D02*
X60500720Y16565360D01*
X60500720Y20265360D01*
X59025720Y20265360D01*
X54125720Y14615360D02*
X54125720Y16565360D01*
X53800720Y16565360D01*
X53800720Y20265360D01*
X55275720Y20265360D01*
X55650720Y16565360D02*
X56450720Y16565360D01*
D12*
G04 #@! TO.C,U4*
X30790000Y47984984D02*
X30480000Y47984984D01*
X30480000Y40914984D01*
X30790000Y40914984D01*
X50490000Y49404984D02*
X50490000Y47984984D01*
X50800000Y47984984D01*
X50800000Y45333984D01*
G03*
X50800000Y43565984I0J-884000D01*
G01*
X50800000Y40914984D01*
X50490000Y40914984D01*
D10*
X37726667Y43950000D02*
X37726667Y44950000D01*
X38297778Y43950000D02*
X37870000Y44521111D01*
X38297778Y44950000D02*
X37726667Y44378889D01*
X39268889Y43950000D02*
X38697778Y43950000D01*
X38983334Y43950000D02*
X38983334Y44950000D01*
X38887778Y44806667D01*
X38793334Y44712222D01*
X38697778Y44664444D01*
X40192222Y44950000D02*
X39716667Y44950000D01*
X39668889Y44473333D01*
X39716667Y44521111D01*
X39812222Y44568889D01*
X40050000Y44568889D01*
X40145556Y44521111D01*
X40192222Y44473333D01*
X40240000Y44378889D01*
X40240000Y44140000D01*
X40192222Y44045556D01*
X40145556Y43997778D01*
X40050000Y43950000D01*
X39812222Y43950000D01*
X39716667Y43997778D01*
X39668889Y44045556D01*
X41163333Y44950000D02*
X40687778Y44950000D01*
X40640000Y44473333D01*
X40687778Y44521111D01*
X40783333Y44568889D01*
X41021111Y44568889D01*
X41116667Y44521111D01*
X41163333Y44473333D01*
X41211111Y44378889D01*
X41211111Y44140000D01*
X41163333Y44045556D01*
X41116667Y43997778D01*
X41021111Y43950000D01*
X40783333Y43950000D01*
X40687778Y43997778D01*
X40640000Y44045556D01*
X41611111Y43950000D02*
X41611111Y44950000D01*
X42011111Y43950000D02*
X42011111Y44950000D01*
X42248889Y44950000D01*
X42392222Y44902222D01*
X42487778Y44806667D01*
X42534444Y44712222D01*
X42582222Y44521111D01*
X42582222Y44378889D01*
X42534444Y44187778D01*
X42487778Y44093333D01*
X42392222Y43997778D01*
X42248889Y43950000D01*
X42011111Y43950000D01*
X43553333Y43950000D02*
X42982222Y43950000D01*
X43267778Y43950000D02*
X43267778Y44950000D01*
X43172222Y44806667D01*
X43077778Y44712222D01*
X42982222Y44664444D01*
D12*
G04 #@! TO.C,LED2*
X91200000Y23750000D02*
X91200000Y20300000D01*
X92450000Y20300000D01*
X92950000Y20800000D02*
X92950000Y23750000D01*
D11*
G36*
X93100000Y20300000D02*
G02*
X92800000Y20300000I-150000J0D01*
G01*
G02*
X93100000Y20300000I150000J0D01*
G01*
G37*
D10*
X90712777Y19530000D02*
X90950555Y18530000D01*
X91141666Y19244444D01*
X91331666Y18530000D01*
X91569444Y19530000D01*
X92017222Y18530000D02*
X92017222Y19196667D01*
X92017222Y19530000D02*
X91969444Y19482222D01*
X92017222Y19434444D01*
X92065000Y19482222D01*
X92017222Y19530000D01*
X92017222Y19434444D01*
X92798333Y19053333D02*
X92465000Y19053333D01*
X92465000Y18530000D02*
X92465000Y19530000D01*
X92941667Y19530000D01*
X93389445Y18530000D02*
X93389445Y19196667D01*
X93389445Y19530000D02*
X93341667Y19482222D01*
X93389445Y19434444D01*
X93437223Y19482222D01*
X93389445Y19530000D01*
X93389445Y19434444D01*
D12*
G04 #@! TO.C,R1*
X85610000Y22550000D02*
X85610000Y21900000D01*
X87110000Y22550000D02*
X87110000Y21900000D01*
D10*
G04 #@! TO.C,DS2*
X42640000Y16320000D02*
X43640000Y14320000D01*
X30140000Y29320000D02*
X30140000Y11320000D01*
G03*
X51140000Y11320000I10500000J5235107D01*
G01*
X51140000Y29320000D01*
G03*
X30140000Y29320000I-10500000J-5235107D01*
G01*
D11*
G36*
X42783000Y14859000D02*
X43767000Y14009000D01*
X43768000Y15306000D01*
X42783000Y14859000D01*
G37*
D10*
X38092778Y7255000D02*
X38092778Y8255000D01*
X38492778Y7255000D02*
X38492778Y8255000D01*
X39063889Y7255000D01*
X39063889Y8255000D01*
X39463889Y7636111D02*
X40226111Y7636111D01*
X41197222Y7255000D02*
X40626111Y7255000D01*
X40911667Y7255000D02*
X40911667Y8255000D01*
X40816111Y8111667D01*
X40721667Y8017222D01*
X40626111Y7969444D01*
X41645000Y8159444D02*
X41692778Y8207222D01*
X41787222Y8255000D01*
X42026111Y8255000D01*
X42120555Y8207222D01*
X42168333Y8159444D01*
X42216111Y8065000D01*
X42216111Y7969444D01*
X42168333Y7826111D01*
X41597222Y7255000D01*
X42216111Y7255000D01*
X42949444Y7778333D02*
X43092778Y7731667D01*
X43139444Y7683889D01*
X43187222Y7588333D01*
X43187222Y7445000D01*
X43139444Y7350556D01*
X43092778Y7302778D01*
X42997222Y7255000D01*
X42616111Y7255000D01*
X42616111Y8255000D01*
X42949444Y8255000D01*
X43045000Y8207222D01*
X43092778Y8159444D01*
X43139444Y8065000D01*
X43139444Y7969444D01*
X43092778Y7873889D01*
X43045000Y7826111D01*
X42949444Y7778333D01*
X42616111Y7778333D01*
D12*
G04 #@! TO.C,U3*
X5390000Y47984984D02*
X5080000Y47984984D01*
X5080000Y40914984D01*
X5390000Y40914984D01*
X25090000Y49404984D02*
X25090000Y47984984D01*
X25400000Y47984984D01*
X25400000Y45333984D01*
G03*
X25400000Y43565984I0J-884000D01*
G01*
X25400000Y40914984D01*
X25090000Y40914984D01*
D10*
X12326667Y43950000D02*
X12326667Y44950000D01*
X12897778Y43950000D02*
X12470000Y44521111D01*
X12897778Y44950000D02*
X12326667Y44378889D01*
X13868889Y43950000D02*
X13297778Y43950000D01*
X13583334Y43950000D02*
X13583334Y44950000D01*
X13487778Y44806667D01*
X13393334Y44712222D01*
X13297778Y44664444D01*
X14792222Y44950000D02*
X14316667Y44950000D01*
X14268889Y44473333D01*
X14316667Y44521111D01*
X14412222Y44568889D01*
X14650000Y44568889D01*
X14745556Y44521111D01*
X14792222Y44473333D01*
X14840000Y44378889D01*
X14840000Y44140000D01*
X14792222Y44045556D01*
X14745556Y43997778D01*
X14650000Y43950000D01*
X14412222Y43950000D01*
X14316667Y43997778D01*
X14268889Y44045556D01*
X15763333Y44950000D02*
X15287778Y44950000D01*
X15240000Y44473333D01*
X15287778Y44521111D01*
X15383333Y44568889D01*
X15621111Y44568889D01*
X15716667Y44521111D01*
X15763333Y44473333D01*
X15811111Y44378889D01*
X15811111Y44140000D01*
X15763333Y44045556D01*
X15716667Y43997778D01*
X15621111Y43950000D01*
X15383333Y43950000D01*
X15287778Y43997778D01*
X15240000Y44045556D01*
X16211111Y43950000D02*
X16211111Y44950000D01*
X16611111Y43950000D02*
X16611111Y44950000D01*
X16848889Y44950000D01*
X16992222Y44902222D01*
X17087778Y44806667D01*
X17134444Y44712222D01*
X17182222Y44521111D01*
X17182222Y44378889D01*
X17134444Y44187778D01*
X17087778Y44093333D01*
X16992222Y43997778D01*
X16848889Y43950000D01*
X16611111Y43950000D01*
X18153333Y43950000D02*
X17582222Y43950000D01*
X17867778Y43950000D02*
X17867778Y44950000D01*
X17772222Y44806667D01*
X17677778Y44712222D01*
X17582222Y44664444D01*
G04 #@! TO.C,S1*
X72669936Y26770000D02*
X79729936Y26770000D01*
X79729936Y13870000D01*
X72669936Y13870000D01*
X72669936Y26770000D01*
G04 #@! TO.C,U5*
X14660000Y77410000D02*
X13660000Y77410000D01*
X12110000Y75860000D01*
X12110000Y74860000D01*
X14210000Y57210000D02*
X13660000Y57210000D01*
X12110000Y58760000D01*
X12110000Y59760000D01*
X44210000Y57210000D02*
X44760000Y57210000D01*
X46310000Y58760000D01*
X46310000Y59760000D01*
X44210000Y77410000D02*
X44760000Y77410000D01*
X46310000Y75860000D01*
X46310000Y74860000D01*
X21238889Y66810000D02*
X21238889Y67810000D01*
X21572222Y67095556D01*
X21905556Y67810000D01*
X21905556Y66810000D01*
X22828889Y67810000D02*
X22353334Y67810000D01*
X22305556Y67333333D01*
X22353334Y67381111D01*
X22448889Y67428889D01*
X22686667Y67428889D01*
X22782223Y67381111D01*
X22828889Y67333333D01*
X22876667Y67238889D01*
X22876667Y67000000D01*
X22828889Y66905556D01*
X22782223Y66857778D01*
X22686667Y66810000D01*
X22448889Y66810000D01*
X22353334Y66857778D01*
X22305556Y66905556D01*
X23276667Y66857778D02*
X23420000Y66810000D01*
X23657778Y66810000D01*
X23753334Y66857778D01*
X23800000Y66905556D01*
X23847778Y67000000D01*
X23847778Y67095556D01*
X23800000Y67191111D01*
X23753334Y67238889D01*
X23657778Y67286667D01*
X23466667Y67333333D01*
X23372223Y67381111D01*
X23324445Y67428889D01*
X23276667Y67524444D01*
X23276667Y67620000D01*
X23324445Y67714444D01*
X23372223Y67762222D01*
X23466667Y67810000D01*
X23705556Y67810000D01*
X23847778Y67762222D01*
X24247778Y67476667D02*
X24628889Y67476667D01*
X24391111Y67810000D02*
X24391111Y66953333D01*
X24437778Y66857778D01*
X24533334Y66810000D01*
X24628889Y66810000D01*
X25505556Y66810000D02*
X25505556Y67333333D01*
X25457778Y67428889D01*
X25362222Y67476667D01*
X25172222Y67476667D01*
X25076667Y67428889D01*
X25505556Y66857778D02*
X25410000Y66810000D01*
X25172222Y66810000D01*
X25076667Y66857778D01*
X25028889Y66953333D01*
X25028889Y67047778D01*
X25076667Y67143333D01*
X25172222Y67191111D01*
X25410000Y67191111D01*
X25505556Y67238889D01*
X26382223Y66857778D02*
X26286667Y66810000D01*
X26095556Y66810000D01*
X26001112Y66857778D01*
X25953334Y66905556D01*
X25905556Y67000000D01*
X25905556Y67286667D01*
X25953334Y67381111D01*
X26001112Y67428889D01*
X26095556Y67476667D01*
X26286667Y67476667D01*
X26382223Y67428889D01*
X26782223Y66810000D02*
X26782223Y67810000D01*
X26877779Y67191111D02*
X27163334Y66810000D01*
X27163334Y67476667D02*
X26782223Y67095556D01*
X28363333Y66857778D02*
X28506666Y66810000D01*
X28744444Y66810000D01*
X28840000Y66857778D01*
X28886666Y66905556D01*
X28934444Y67000000D01*
X28934444Y67095556D01*
X28886666Y67191111D01*
X28840000Y67238889D01*
X28744444Y67286667D01*
X28553333Y67333333D01*
X28458889Y67381111D01*
X28411111Y67428889D01*
X28363333Y67524444D01*
X28363333Y67620000D01*
X28411111Y67714444D01*
X28458889Y67762222D01*
X28553333Y67810000D01*
X28792222Y67810000D01*
X28934444Y67762222D01*
X29334444Y67810000D02*
X29905555Y67810000D01*
X29620000Y66810000D02*
X29620000Y67810000D01*
X30401111Y67095556D02*
X30876666Y67095556D01*
X30305555Y66810000D02*
X30638888Y67810000D01*
X30972222Y66810000D01*
X31372222Y66810000D02*
X31372222Y67810000D01*
X31705555Y67095556D01*
X32038889Y67810000D01*
X32038889Y66810000D01*
X32438889Y66810000D02*
X32438889Y67810000D01*
X32820000Y67810000D01*
X32915556Y67762222D01*
X32962222Y67714444D01*
X33010000Y67620000D01*
X33010000Y67476667D01*
X32962222Y67381111D01*
X32915556Y67333333D01*
X32820000Y67286667D01*
X32438889Y67286667D01*
X33410000Y67191111D02*
X34172222Y67191111D01*
X35191111Y66905556D02*
X35143333Y66857778D01*
X35001111Y66810000D01*
X34905555Y66810000D01*
X34762222Y66857778D01*
X34667778Y66953333D01*
X34620000Y67047778D01*
X34572222Y67238889D01*
X34572222Y67381111D01*
X34620000Y67572222D01*
X34667778Y67666667D01*
X34762222Y67762222D01*
X34905555Y67810000D01*
X35001111Y67810000D01*
X35143333Y67762222D01*
X35191111Y67714444D01*
X35591111Y67810000D02*
X36210000Y67810000D01*
X35876667Y67428889D01*
X36020000Y67428889D01*
X36114444Y67381111D01*
X36162222Y67333333D01*
X36210000Y67238889D01*
X36210000Y67000000D01*
X36162222Y66905556D01*
X36114444Y66857778D01*
X36020000Y66810000D01*
X35734444Y66810000D01*
X35638889Y66857778D01*
X35591111Y66905556D01*
X36610000Y67810000D02*
X36610000Y67000000D01*
X36657778Y66905556D01*
X36705556Y66857778D01*
X36800000Y66810000D01*
X36991111Y66810000D01*
X37086667Y66857778D01*
X37133333Y66905556D01*
X37181111Y67000000D01*
X37181111Y67810000D01*
G04 #@! TO.C,U1*
X60240992Y32428192D02*
X60240992Y77428192D01*
X97240992Y77428192D01*
X97240992Y32428192D01*
X60240992Y32428192D01*
D11*
G36*
X75340992Y75428192D02*
G02*
X73140992Y75428192I-1100000J0D01*
G01*
G02*
X75340992Y75428192I1100000J0D01*
G01*
G37*
D10*
X64588770Y62463192D02*
X64540992Y62368748D01*
X64540992Y62225414D01*
X64588770Y62082081D01*
X64684325Y61987637D01*
X64778770Y61939859D01*
X64969881Y61892081D01*
X65112103Y61892081D01*
X65303214Y61939859D01*
X65397659Y61987637D01*
X65493214Y62082081D01*
X65540992Y62225414D01*
X65540992Y62320970D01*
X65493214Y62463192D01*
X65445436Y62510970D01*
X65112103Y62510970D01*
X65112103Y62320970D01*
X65540992Y62910970D02*
X64540992Y62910970D01*
X65540992Y63482081D01*
X64540992Y63482081D01*
X65540992Y63882081D02*
X64540992Y63882081D01*
X64540992Y64119859D01*
X64588770Y64263192D01*
X64684325Y64358748D01*
X64778770Y64405414D01*
X64969881Y64453192D01*
X65112103Y64453192D01*
X65303214Y64405414D01*
X65397659Y64358748D01*
X65493214Y64263192D01*
X65540992Y64119859D01*
X65540992Y63882081D01*
X67509881Y54386526D02*
X67462103Y54292082D01*
X67414325Y54244304D01*
X67318770Y54196526D01*
X67270992Y54196526D01*
X67176548Y54244304D01*
X67128770Y54292082D01*
X67080992Y54386526D01*
X67080992Y54577637D01*
X67128770Y54673193D01*
X67176548Y54719859D01*
X67270992Y54767637D01*
X67318770Y54767637D01*
X67414325Y54719859D01*
X67462103Y54673193D01*
X67509881Y54577637D01*
X67509881Y54386526D01*
X67557659Y54292082D01*
X67604325Y54244304D01*
X67699881Y54196526D01*
X67890992Y54196526D01*
X67985436Y54244304D01*
X68033214Y54292082D01*
X68080992Y54386526D01*
X68080992Y54577637D01*
X68033214Y54673193D01*
X67985436Y54719859D01*
X67890992Y54767637D01*
X67699881Y54767637D01*
X67604325Y54719859D01*
X67557659Y54673193D01*
X67509881Y54577637D01*
X67080992Y55690970D02*
X67080992Y55215415D01*
X67557659Y55167637D01*
X67509881Y55215415D01*
X67462103Y55310970D01*
X67462103Y55548748D01*
X67509881Y55644304D01*
X67557659Y55690970D01*
X67652103Y55738748D01*
X67890992Y55738748D01*
X67985436Y55690970D01*
X68033214Y55644304D01*
X68080992Y55548748D01*
X68080992Y55310970D01*
X68033214Y55215415D01*
X67985436Y55167637D01*
X67699881Y56138748D02*
X67699881Y56900970D01*
X67176548Y57348748D02*
X67128770Y57396526D01*
X67080992Y57490970D01*
X67080992Y57729859D01*
X67128770Y57824303D01*
X67176548Y57872081D01*
X67270992Y57919859D01*
X67366548Y57919859D01*
X67509881Y57872081D01*
X68080992Y57300970D01*
X68080992Y57919859D01*
X67080992Y58319859D02*
X67080992Y58938748D01*
X67462103Y58605415D01*
X67462103Y58748748D01*
X67509881Y58843192D01*
X67557659Y58890970D01*
X67652103Y58938748D01*
X67890992Y58938748D01*
X67985436Y58890970D01*
X68033214Y58843192D01*
X68080992Y58748748D01*
X68080992Y58463192D01*
X68033214Y58367637D01*
X67985436Y58319859D01*
X67080992Y59862081D02*
X67080992Y59386526D01*
X67557659Y59338748D01*
X67509881Y59386526D01*
X67462103Y59482081D01*
X67462103Y59719859D01*
X67509881Y59815415D01*
X67557659Y59862081D01*
X67652103Y59909859D01*
X67890992Y59909859D01*
X67985436Y59862081D01*
X68033214Y59815415D01*
X68080992Y59719859D01*
X68080992Y59482081D01*
X68033214Y59386526D01*
X67985436Y59338748D01*
X67080992Y60309859D02*
X68080992Y60643192D01*
X67080992Y60976526D01*
X67080992Y62414303D02*
X67080992Y62605414D01*
X67128770Y62699858D01*
X67224325Y62795414D01*
X67414325Y62843192D01*
X67747659Y62843192D01*
X67937659Y62795414D01*
X68033214Y62699858D01*
X68080992Y62605414D01*
X68080992Y62414303D01*
X68033214Y62319858D01*
X67937659Y62224303D01*
X67747659Y62176525D01*
X67414325Y62176525D01*
X67224325Y62224303D01*
X67128770Y62319858D01*
X67080992Y62414303D01*
X67414325Y63672081D02*
X68080992Y63672081D01*
X67414325Y63243192D02*
X67937659Y63243192D01*
X68033214Y63290970D01*
X68080992Y63386525D01*
X68080992Y63528748D01*
X68033214Y63624303D01*
X67985436Y63672081D01*
X67414325Y64072081D02*
X67414325Y64453192D01*
X67080992Y64215414D02*
X67937659Y64215414D01*
X68033214Y64262081D01*
X68080992Y64357637D01*
X68080992Y64453192D01*
X70070992Y45339303D02*
X70070992Y44768192D01*
X70070992Y45053748D02*
X69070992Y45053748D01*
X69214325Y44958192D01*
X69308770Y44863748D01*
X69356548Y44768192D01*
X69166548Y45787081D02*
X69118770Y45834859D01*
X69070992Y45929303D01*
X69070992Y46168192D01*
X69118770Y46262636D01*
X69166548Y46310414D01*
X69260992Y46358192D01*
X69356548Y46358192D01*
X69499881Y46310414D01*
X70070992Y45739303D01*
X70070992Y46358192D01*
X69689881Y46758192D02*
X69689881Y47520414D01*
X69166548Y47968192D02*
X69118770Y48015970D01*
X69070992Y48110414D01*
X69070992Y48349303D01*
X69118770Y48443747D01*
X69166548Y48491525D01*
X69260992Y48539303D01*
X69356548Y48539303D01*
X69499881Y48491525D01*
X70070992Y47920414D01*
X70070992Y48539303D01*
X69404325Y49415970D02*
X70070992Y49415970D01*
X69023214Y49177081D02*
X69737659Y48939303D01*
X69737659Y49558192D01*
X69070992Y49958192D02*
X70070992Y50291525D01*
X69070992Y50624859D01*
X70070992Y51824858D02*
X69070992Y51824858D01*
X70070992Y52224858D02*
X69070992Y52224858D01*
X70070992Y52795969D01*
X69070992Y52795969D01*
X67483214Y44768192D02*
X67530992Y44911525D01*
X67530992Y45149303D01*
X67483214Y45244859D01*
X67435436Y45291525D01*
X67340992Y45339303D01*
X67245436Y45339303D01*
X67149881Y45291525D01*
X67102103Y45244859D01*
X67054325Y45149303D01*
X67007659Y44958192D01*
X66959881Y44863748D01*
X66912103Y44815970D01*
X66816548Y44768192D01*
X66720992Y44768192D01*
X66626548Y44815970D01*
X66578770Y44863748D01*
X66530992Y44958192D01*
X66530992Y45197081D01*
X66578770Y45339303D01*
X67530992Y45739303D02*
X66530992Y45739303D01*
X67007659Y45739303D02*
X67007659Y46310414D01*
X67530992Y46310414D02*
X66530992Y46310414D01*
X67530992Y46710414D02*
X66530992Y46710414D01*
X66530992Y46948192D01*
X66578770Y47091525D01*
X66674325Y47187081D01*
X66768770Y47233747D01*
X66959881Y47281525D01*
X67102103Y47281525D01*
X67293214Y47233747D01*
X67387659Y47187081D01*
X67483214Y47091525D01*
X67530992Y46948192D01*
X67530992Y46710414D01*
X67530992Y47681525D02*
X66530992Y47681525D01*
X67530992Y48252636D01*
X66530992Y48252636D01*
X64038770Y45339303D02*
X63990992Y45244859D01*
X63990992Y45101525D01*
X64038770Y44958192D01*
X64134325Y44863748D01*
X64228770Y44815970D01*
X64419881Y44768192D01*
X64562103Y44768192D01*
X64753214Y44815970D01*
X64847659Y44863748D01*
X64943214Y44958192D01*
X64990992Y45101525D01*
X64990992Y45197081D01*
X64943214Y45339303D01*
X64895436Y45387081D01*
X64562103Y45387081D01*
X64562103Y45197081D01*
X64990992Y45787081D02*
X63990992Y45787081D01*
X64990992Y46358192D01*
X63990992Y46358192D01*
X64990992Y46758192D02*
X63990992Y46758192D01*
X63990992Y46995970D01*
X64038770Y47139303D01*
X64134325Y47234859D01*
X64228770Y47281525D01*
X64419881Y47329303D01*
X64562103Y47329303D01*
X64753214Y47281525D01*
X64847659Y47234859D01*
X64943214Y47139303D01*
X64990992Y46995970D01*
X64990992Y46758192D01*
D12*
G04 #@! TO.C,LED1*
X82945000Y23750000D02*
X82945000Y20300000D01*
X84195000Y20300000D01*
X84695000Y20800000D02*
X84695000Y23750000D01*
D11*
G36*
X84845000Y20300000D02*
G02*
X84545000Y20300000I-150000J0D01*
G01*
G02*
X84845000Y20300000I150000J0D01*
G01*
G37*
D10*
X82610556Y18530000D02*
X82610556Y19530000D01*
X82991667Y19530000D01*
X83087223Y19482222D01*
X83133889Y19434444D01*
X83181667Y19340000D01*
X83181667Y19196667D01*
X83133889Y19101111D01*
X83087223Y19053333D01*
X82991667Y19006667D01*
X82610556Y19006667D01*
X83581667Y19196667D02*
X83771667Y18530000D01*
X83962778Y19006667D01*
X84152778Y18530000D01*
X84343889Y19196667D01*
X84743889Y18530000D02*
X84743889Y19196667D01*
X84743889Y19006667D02*
X84791667Y19101111D01*
X84839445Y19148889D01*
X84933889Y19196667D01*
X85029445Y19196667D01*
D12*
G04 #@! TO.C,C4*
X67915000Y16190000D02*
X62620000Y16190000D01*
X62620000Y14290000D01*
X67915000Y14290000D01*
G04 #@! TO.C,C2*
X53660688Y29815448D02*
X53660688Y24520448D01*
X55560688Y24520448D01*
X55560688Y29815448D01*
D10*
G04 #@! TO.C,J1*
X85511168Y7510064D02*
X85511168Y5660064D01*
X99911168Y5660064D01*
X99911168Y14660064D01*
X91461168Y14660064D01*
X86161168Y14660064D02*
X85511168Y14660064D01*
X85511168Y12810064D01*
D12*
X89559085Y3580064D02*
X88702418Y3580064D01*
X89130751Y3580064D02*
X89130751Y5080064D01*
X88987418Y4865064D01*
X88845751Y4723397D01*
X88702418Y4651731D01*
X90180752Y4936731D02*
X90252418Y5008397D01*
X90394085Y5080064D01*
X90752418Y5080064D01*
X90894085Y5008397D01*
X90965752Y4936731D01*
X91037418Y4795064D01*
X91037418Y4651731D01*
X90965752Y4436731D01*
X90109085Y3580064D01*
X91037418Y3580064D01*
X91587418Y5080064D02*
X92087418Y3580064D01*
X92587418Y5080064D01*
D10*
G04 #@! TO.C,DS1*
X13983334Y2810000D02*
X13983334Y3810000D01*
X14221112Y3810000D01*
X14364445Y3762222D01*
X14460001Y3666667D01*
X14506667Y3572222D01*
X14554445Y3381111D01*
X14554445Y3238889D01*
X14506667Y3047778D01*
X14460001Y2953333D01*
X14364445Y2857778D01*
X14221112Y2810000D01*
X13983334Y2810000D01*
X14954445Y2857778D02*
X15097778Y2810000D01*
X15335556Y2810000D01*
X15431112Y2857778D01*
X15477778Y2905556D01*
X15525556Y3000000D01*
X15525556Y3095556D01*
X15477778Y3191111D01*
X15431112Y3238889D01*
X15335556Y3286667D01*
X15144445Y3333333D01*
X15050001Y3381111D01*
X15002223Y3428889D01*
X14954445Y3524444D01*
X14954445Y3620000D01*
X15002223Y3714444D01*
X15050001Y3762222D01*
X15144445Y3810000D01*
X15383334Y3810000D01*
X15525556Y3762222D01*
X16496667Y2810000D02*
X15925556Y2810000D01*
X16211112Y2810000D02*
X16211112Y3810000D01*
X16115556Y3666667D01*
X16021112Y3572222D01*
X15925556Y3524444D01*
G04 #@! TO.C,R2*
X97040000Y22001111D02*
X96563333Y21667778D01*
X97040000Y21430000D02*
X96040000Y21430000D01*
X96040000Y21811111D01*
X96087778Y21906667D01*
X96135556Y21953333D01*
X96230000Y22001111D01*
X96373333Y22001111D01*
X96468889Y21953333D01*
X96516667Y21906667D01*
X96563333Y21811111D01*
X96563333Y21430000D01*
X96135556Y22448889D02*
X96087778Y22496667D01*
X96040000Y22591111D01*
X96040000Y22830000D01*
X96087778Y22924444D01*
X96135556Y22972222D01*
X96230000Y23020000D01*
X96325556Y23020000D01*
X96468889Y22972222D01*
X97040000Y22401111D01*
X97040000Y23020000D01*
G04 #@! TO.C,R3*
X65737567Y37263000D02*
X65404234Y37739667D01*
X65166456Y37263000D02*
X65166456Y38263000D01*
X65547567Y38263000D01*
X65643123Y38215222D01*
X65689789Y38167444D01*
X65737567Y38073000D01*
X65737567Y37929667D01*
X65689789Y37834111D01*
X65643123Y37786333D01*
X65547567Y37739667D01*
X65166456Y37739667D01*
X66137567Y38263000D02*
X66756456Y38263000D01*
X66423123Y37881889D01*
X66566456Y37881889D01*
X66660900Y37834111D01*
X66708678Y37786333D01*
X66756456Y37691889D01*
X66756456Y37453000D01*
X66708678Y37358556D01*
X66660900Y37310778D01*
X66566456Y37263000D01*
X66280900Y37263000D01*
X66185345Y37310778D01*
X66137567Y37358556D01*
G04 #@! TO.C,U2*
X60165000Y22590000D02*
X60165000Y21780000D01*
X60212778Y21685556D01*
X60260556Y21637778D01*
X60355000Y21590000D01*
X60546111Y21590000D01*
X60641667Y21637778D01*
X60688333Y21685556D01*
X60736111Y21780000D01*
X60736111Y22590000D01*
X61183889Y22494444D02*
X61231667Y22542222D01*
X61326111Y22590000D01*
X61565000Y22590000D01*
X61659444Y22542222D01*
X61707222Y22494444D01*
X61755000Y22400000D01*
X61755000Y22304444D01*
X61707222Y22161111D01*
X61136111Y21590000D01*
X61755000Y21590000D01*
G04 #@! TO.C,U4*
X51943492Y43654984D02*
X52753492Y43654984D01*
X52847936Y43702762D01*
X52895714Y43750540D01*
X52943492Y43844984D01*
X52943492Y44036095D01*
X52895714Y44131651D01*
X52847936Y44178317D01*
X52753492Y44226095D01*
X51943492Y44226095D01*
X52276825Y45102762D02*
X52943492Y45102762D01*
X51895714Y44863873D02*
X52610159Y44626095D01*
X52610159Y45244984D01*
G04 #@! TO.C,R1*
X88785000Y22025000D02*
X88308333Y21691667D01*
X88785000Y21453889D02*
X87785000Y21453889D01*
X87785000Y21835000D01*
X87832778Y21930556D01*
X87880556Y21977222D01*
X87975000Y22025000D01*
X88118333Y22025000D01*
X88213889Y21977222D01*
X88261667Y21930556D01*
X88308333Y21835000D01*
X88308333Y21453889D01*
X88785000Y22996111D02*
X88785000Y22425000D01*
X88785000Y22710556D02*
X87785000Y22710556D01*
X87928333Y22615000D01*
X88022778Y22520556D01*
X88070556Y22425000D01*
G04 #@! TO.C,DS2*
X39359445Y2810000D02*
X39359445Y3810000D01*
X39597223Y3810000D01*
X39740556Y3762222D01*
X39836112Y3666667D01*
X39882778Y3572222D01*
X39930556Y3381111D01*
X39930556Y3238889D01*
X39882778Y3047778D01*
X39836112Y2953333D01*
X39740556Y2857778D01*
X39597223Y2810000D01*
X39359445Y2810000D01*
X40330556Y2857778D02*
X40473889Y2810000D01*
X40711667Y2810000D01*
X40807223Y2857778D01*
X40853889Y2905556D01*
X40901667Y3000000D01*
X40901667Y3095556D01*
X40853889Y3191111D01*
X40807223Y3238889D01*
X40711667Y3286667D01*
X40520556Y3333333D01*
X40426112Y3381111D01*
X40378334Y3428889D01*
X40330556Y3524444D01*
X40330556Y3620000D01*
X40378334Y3714444D01*
X40426112Y3762222D01*
X40520556Y3810000D01*
X40759445Y3810000D01*
X40901667Y3762222D01*
X41349445Y3714444D02*
X41397223Y3762222D01*
X41491667Y3810000D01*
X41730556Y3810000D01*
X41825000Y3762222D01*
X41872778Y3714444D01*
X41920556Y3620000D01*
X41920556Y3524444D01*
X41872778Y3381111D01*
X41301667Y2810000D01*
X41920556Y2810000D01*
G04 #@! TO.C,U3*
X26543492Y43654984D02*
X27353492Y43654984D01*
X27447936Y43702762D01*
X27495714Y43750540D01*
X27543492Y43844984D01*
X27543492Y44036095D01*
X27495714Y44131651D01*
X27447936Y44178317D01*
X27353492Y44226095D01*
X26543492Y44226095D01*
X26543492Y44626095D02*
X26543492Y45244984D01*
X26924603Y44911651D01*
X26924603Y45054984D01*
X26972381Y45149428D01*
X27020159Y45197206D01*
X27114603Y45244984D01*
X27353492Y45244984D01*
X27447936Y45197206D01*
X27495714Y45149428D01*
X27543492Y45054984D01*
X27543492Y44769428D01*
X27495714Y44673873D01*
X27447936Y44626095D01*
G04 #@! TO.C,S1*
X75428825Y11812778D02*
X75572158Y11765000D01*
X75809936Y11765000D01*
X75905492Y11812778D01*
X75952158Y11860556D01*
X75999936Y11955000D01*
X75999936Y12050556D01*
X75952158Y12146111D01*
X75905492Y12193889D01*
X75809936Y12241667D01*
X75618825Y12288333D01*
X75524381Y12336111D01*
X75476603Y12383889D01*
X75428825Y12479444D01*
X75428825Y12575000D01*
X75476603Y12669444D01*
X75524381Y12717222D01*
X75618825Y12765000D01*
X75857714Y12765000D01*
X75999936Y12717222D01*
X76971047Y11765000D02*
X76399936Y11765000D01*
X76685492Y11765000D02*
X76685492Y12765000D01*
X76589936Y12621667D01*
X76495492Y12527222D01*
X76399936Y12479444D01*
G04 #@! TO.C,U5*
X10430000Y66538889D02*
X11240000Y66538889D01*
X11334444Y66586667D01*
X11382222Y66634445D01*
X11430000Y66728889D01*
X11430000Y66920000D01*
X11382222Y67015556D01*
X11334444Y67062222D01*
X11240000Y67110000D01*
X10430000Y67110000D01*
X10430000Y68033333D02*
X10430000Y67557778D01*
X10906667Y67510000D01*
X10858889Y67557778D01*
X10811111Y67653333D01*
X10811111Y67891111D01*
X10858889Y67986667D01*
X10906667Y68033333D01*
X11001111Y68081111D01*
X11240000Y68081111D01*
X11334444Y68033333D01*
X11382222Y67986667D01*
X11430000Y67891111D01*
X11430000Y67653333D01*
X11382222Y67557778D01*
X11334444Y67510000D01*
G04 #@! TO.C,U1*
X95614002Y31618144D02*
X95614002Y30808144D01*
X95661780Y30713700D01*
X95709558Y30665922D01*
X95804002Y30618144D01*
X95995113Y30618144D01*
X96090669Y30665922D01*
X96137335Y30713700D01*
X96185113Y30808144D01*
X96185113Y31618144D01*
X97156224Y30618144D02*
X96585113Y30618144D01*
X96870669Y30618144D02*
X96870669Y31618144D01*
X96775113Y31474811D01*
X96680669Y31380366D01*
X96585113Y31332588D01*
G04 #@! TO.C,C4*
X65205000Y12430556D02*
X65157222Y12382778D01*
X65015000Y12335000D01*
X64919444Y12335000D01*
X64776111Y12382778D01*
X64681667Y12478333D01*
X64633889Y12572778D01*
X64586111Y12763889D01*
X64586111Y12906111D01*
X64633889Y13097222D01*
X64681667Y13191667D01*
X64776111Y13287222D01*
X64919444Y13335000D01*
X65015000Y13335000D01*
X65157222Y13287222D01*
X65205000Y13239444D01*
X66081667Y13001667D02*
X66081667Y12335000D01*
X65842778Y13382778D02*
X65605000Y12668333D01*
X66223889Y12668333D01*
G04 #@! TO.C,C2*
X54410688Y30588524D02*
X54362910Y30540746D01*
X54220688Y30492968D01*
X54125132Y30492968D01*
X53981799Y30540746D01*
X53887355Y30636301D01*
X53839577Y30730746D01*
X53791799Y30921857D01*
X53791799Y31064079D01*
X53839577Y31255190D01*
X53887355Y31349635D01*
X53981799Y31445190D01*
X54125132Y31492968D01*
X54220688Y31492968D01*
X54362910Y31445190D01*
X54410688Y31397412D01*
X54858466Y31397412D02*
X54906244Y31445190D01*
X55000688Y31492968D01*
X55239577Y31492968D01*
X55334021Y31445190D01*
X55381799Y31397412D01*
X55429577Y31302968D01*
X55429577Y31207412D01*
X55381799Y31064079D01*
X54810688Y30492968D01*
X55429577Y30492968D01*
G04 #@! TO.C,J1*
X96264779Y16240064D02*
X96264779Y15525620D01*
X96217001Y15383397D01*
X96121446Y15287842D01*
X95979224Y15240064D01*
X95883668Y15240064D01*
X97235890Y15240064D02*
X96664779Y15240064D01*
X96950335Y15240064D02*
X96950335Y16240064D01*
X96854779Y16096731D01*
X96760335Y16002286D01*
X96664779Y15954508D01*
%LPC*%
D13*
G04 #@! TO.C,DS1*
X19240000Y28320000D03*
X20990000Y20320000D03*
X19240000Y12320000D03*
X15240000Y29320000D03*
X20990000Y24820000D03*
X11240000Y28320000D03*
X9490000Y15820000D03*
X9490000Y20320000D03*
X11240000Y12320000D03*
X9490000Y24820000D03*
X15240000Y11320000D03*
X20990000Y15820000D03*
D14*
G04 #@! TD*
X15240000Y20320000D03*
D15*
G04 #@! TO.C,R2*
X94615000Y21150000D03*
X94615000Y23300000D03*
D16*
G04 #@! TO.C,R3*
X64886456Y39688000D03*
X67036456Y39688000D03*
D17*
G04 #@! TO.C,U2*
X57150720Y21315360D03*
D18*
X54850720Y15515360D03*
X57150720Y15515360D03*
X59450720Y15515360D03*
D19*
G04 #@! TO.C,U4*
X36830000Y48259984D03*
X49530000Y40639984D03*
X34290000Y40639984D03*
D20*
X49530000Y48259984D03*
D19*
X34290000Y48259984D03*
X44450000Y48259984D03*
X46990000Y48259984D03*
X44450000Y40639984D03*
X31750000Y48259984D03*
X41910000Y40639984D03*
X46990000Y40639984D03*
X39370000Y48259984D03*
X39370000Y40639984D03*
X41910000Y48259984D03*
X36830000Y40639984D03*
X31750000Y40639984D03*
D11*
G04 #@! TO.C,L1*
G36*
X66875000Y8395000D02*
X66865000Y8375000D01*
X66905000Y8275000D01*
X66985000Y8135000D01*
X67095000Y7985000D01*
X67215000Y7865000D01*
X67285000Y7785000D01*
X67285000Y7765000D01*
X67265000Y7765000D01*
X67235000Y7755000D01*
X67235000Y7735000D01*
X67335000Y7675000D01*
X67435000Y7635000D01*
X67475000Y7635000D01*
X67465000Y7675000D01*
X67405000Y7765000D01*
X67345000Y7835000D01*
X67305000Y7855000D01*
X67245000Y7885000D01*
X67155000Y7985000D01*
X66975000Y8245000D01*
X66875000Y8395000D01*
X66875000Y8395000D01*
G37*
G36*
X67745000Y7285000D02*
X67635000Y7235000D01*
X67495000Y7215000D01*
X67285000Y7235000D01*
X67155000Y7285000D01*
X67095000Y7315000D01*
X67005000Y7375000D01*
X66925000Y7415000D01*
X66915000Y7435000D01*
X66895000Y7445000D01*
X66825000Y7495000D01*
X66785000Y7565000D01*
X66775000Y7565000D01*
X66715000Y7605000D01*
X66695000Y7625000D01*
X66705000Y7625000D01*
X66705000Y7645000D01*
X66645000Y7715000D01*
X66555000Y7815000D01*
X66545000Y7835000D01*
X66575000Y7825000D01*
X66575000Y7835000D01*
X66535000Y7875000D01*
X66475000Y7975000D01*
X66445000Y8025000D01*
X66425000Y8065000D01*
X66405000Y8115000D01*
X66385000Y8155000D01*
X66385000Y8195000D01*
X66355000Y8245000D01*
X66305000Y8475000D01*
X66295000Y8735000D01*
X66325000Y8955000D01*
X66345000Y9005000D01*
X66375000Y9065000D01*
X66405000Y9125000D01*
X66475000Y9225000D01*
X66525000Y9275000D01*
X66565000Y9285000D01*
X66585000Y9285000D01*
X66625000Y9325000D01*
X66665000Y9345000D01*
X66645000Y9295000D01*
X66575000Y9145000D01*
X66555000Y8905000D01*
X66575000Y8635000D01*
X66585000Y8515000D01*
X66565000Y8465000D01*
X66585000Y8475000D01*
X66605000Y8485000D01*
X66615000Y8475000D01*
X66615000Y8435000D01*
X66635000Y8395000D01*
X66665000Y8335000D01*
X66705000Y8225000D01*
X66735000Y8145000D01*
X66785000Y8085000D01*
X66845000Y8005000D01*
X67055000Y7725000D01*
X67245000Y7575000D01*
X67415000Y7465000D01*
X67515000Y7425000D01*
X67635000Y7375000D01*
X67765000Y7355000D01*
X67855000Y7345000D01*
X67745000Y7285000D01*
X67785000Y7245000D01*
X67935000Y7325000D01*
X68145000Y7475000D01*
X68285000Y7625000D01*
X68365000Y7785000D01*
X68405000Y7985000D01*
X68415000Y8095000D01*
X68645000Y8135000D01*
X68635000Y8155000D01*
X68615000Y8165000D01*
X68565000Y8165000D01*
X68325000Y8145000D01*
X67345000Y8145000D01*
X67295000Y8195000D01*
X67215000Y8315000D01*
X67195000Y8385000D01*
X67205000Y8435000D01*
X67635000Y8475000D01*
X67665000Y8485000D01*
X67665000Y8495000D01*
X67675000Y8505000D01*
X67715000Y8505000D01*
X67775000Y8505000D01*
X67765000Y8535000D01*
X67615000Y8555000D01*
X67595000Y8575000D01*
X67555000Y8635000D01*
X67515000Y8695000D01*
X67515000Y8735000D01*
X67535000Y8825000D01*
X67555000Y8895000D01*
X67555000Y8945000D01*
X67575000Y8975000D01*
X67625000Y8965000D01*
X67725000Y8885000D01*
X67835000Y8745000D01*
X67865000Y8675000D01*
X67915000Y8585000D01*
X67925000Y8555000D01*
X67905000Y8545000D01*
X67765000Y8535000D01*
X67775000Y8505000D01*
X68135000Y8485000D01*
X68135000Y8515000D01*
X68005000Y8545000D01*
X67925000Y8695000D01*
X67855000Y8825000D01*
X67775000Y8915000D01*
X67665000Y9015000D01*
X67555000Y9085000D01*
X67445000Y9135000D01*
X67445000Y9305000D01*
X67445000Y9485000D01*
X67495000Y9465000D01*
X67605000Y9415000D01*
X67735000Y9325000D01*
X67985000Y9065000D01*
X68165000Y8785000D01*
X68265000Y8555000D01*
X68235000Y8525000D01*
X68135000Y8515000D01*
X68135000Y8485000D01*
X68365000Y8475000D01*
X68345000Y8515000D01*
X68255000Y8705000D01*
X68095000Y8995000D01*
X67965000Y9165000D01*
X67805000Y9325000D01*
X67635000Y9455000D01*
X67495000Y9535000D01*
X67445000Y9555000D01*
X67455000Y9705000D01*
X67435000Y9845000D01*
X67395000Y9855000D01*
X67395000Y8565000D01*
X67335000Y8535000D01*
X67235000Y8525000D01*
X67115000Y8555000D01*
X67085000Y8685000D01*
X67085000Y9015000D01*
X67085000Y9245000D01*
X67025000Y9245000D01*
X66995000Y8835000D01*
X66985000Y8725000D01*
X66995000Y8615000D01*
X67075000Y8375000D01*
X67205000Y8145000D01*
X67385000Y7975000D01*
X67545000Y7895000D01*
X67685000Y7865000D01*
X67825000Y7895000D01*
X67925000Y7965000D01*
X68055000Y8095000D01*
X68185000Y8105000D01*
X68285000Y8105000D01*
X68335000Y8085000D01*
X68355000Y8035000D01*
X68345000Y7945000D01*
X68305000Y7765000D01*
X68205000Y7605000D01*
X68065000Y7485000D01*
X67875000Y7425000D01*
X67675000Y7435000D01*
X67465000Y7505000D01*
X67265000Y7635000D01*
X67075000Y7815000D01*
X66905000Y8025000D01*
X66765000Y8275000D01*
X66665000Y8555000D01*
X66635000Y8735000D01*
X66635000Y8935000D01*
X66655000Y9125000D01*
X66705000Y9285000D01*
X66785000Y9405000D01*
X66895000Y9505000D01*
X66975000Y9555000D01*
X67015000Y9555000D01*
X67025000Y9505000D01*
X67025000Y9245000D01*
X67085000Y9245000D01*
X67075000Y9735000D01*
X67075000Y9905000D01*
X67055000Y9955000D01*
X67035000Y9785000D01*
X67025000Y9655000D01*
X66975000Y9615000D01*
X66665000Y9435000D01*
X66405000Y9245000D01*
X66325000Y9125000D01*
X66265000Y8985000D01*
X66235000Y8825000D01*
X66215000Y8645000D01*
X66215000Y8515000D01*
X66035000Y8475000D01*
X66035000Y8445000D01*
X66235000Y8445000D01*
X66295000Y8175000D01*
X66135000Y8135000D01*
X66035000Y8095000D01*
X66065000Y8085000D01*
X66125000Y8085000D01*
X66345000Y8095000D01*
X66375000Y8015000D01*
X66475000Y7835000D01*
X66625000Y7635000D01*
X66795000Y7445000D01*
X66945000Y7325000D01*
X67035000Y7265000D01*
X67025000Y6995000D01*
X67045000Y6765000D01*
X67085000Y6805000D01*
X67095000Y7005000D01*
X67105000Y7115000D01*
X67115000Y7195000D01*
X67135000Y7215000D01*
X67285000Y7175000D01*
X67405000Y7135000D01*
X67405000Y6985000D01*
X67395000Y6845000D01*
X67445000Y6865000D01*
X67445000Y7005000D01*
X67445000Y7025000D01*
X67455000Y7095000D01*
X67455000Y7045000D01*
X67445000Y7005000D01*
X67455000Y7075000D01*
X67475000Y7135000D01*
X67525000Y7145000D01*
X67695000Y7185000D01*
X67785000Y7245000D01*
X67745000Y7285000D01*
G37*
G36*
X68245000Y8045000D02*
X68055000Y7855000D01*
X68085000Y7855000D01*
X68105000Y7855000D01*
X68115000Y7845000D01*
X68065000Y7785000D01*
X67935000Y7715000D01*
X67775000Y7685000D01*
X67685000Y7665000D01*
X67715000Y7645000D01*
X67805000Y7645000D01*
X67975000Y7675000D01*
X68105000Y7765000D01*
X68185000Y7815000D01*
X68205000Y7835000D01*
X68225000Y7925000D01*
X68245000Y8045000D01*
X68245000Y8045000D01*
G37*
G36*
X66915000Y9255000D02*
X66885000Y9245000D01*
X66835000Y9145000D01*
X66805000Y9005000D01*
X66795000Y8975000D01*
X66765000Y8955000D01*
X66735000Y8935000D01*
X66735000Y8915000D01*
X66755000Y8805000D01*
X66775000Y8715000D01*
X66815000Y8705000D01*
X66845000Y8765000D01*
X66885000Y8925000D01*
X66875000Y8955000D01*
X66855000Y8965000D01*
X66845000Y9015000D01*
X66885000Y9155000D01*
X66915000Y9225000D01*
X66915000Y9255000D01*
X66915000Y9255000D01*
G37*
G36*
X67515000Y9305000D02*
X67585000Y9195000D01*
X67685000Y9095000D01*
X67695000Y9115000D01*
X67705000Y9135000D01*
X67765000Y9095000D01*
X67855000Y9005000D01*
X68005000Y8805000D01*
X68065000Y8715000D01*
X68085000Y8705000D01*
X68095000Y8725000D01*
X67995000Y8885000D01*
X67825000Y9095000D01*
X67745000Y9195000D01*
X67765000Y9215000D01*
X67645000Y9275000D01*
X67515000Y9305000D01*
X67515000Y9305000D01*
G37*
D10*
X69850000Y8495000D02*
X69850000Y9495000D01*
X70183333Y8780556D01*
X70516667Y9495000D01*
X70516667Y8495000D01*
X71393334Y8495000D02*
X71393334Y9018333D01*
X71345556Y9113889D01*
X71250000Y9161667D01*
X71060000Y9161667D01*
X70964445Y9113889D01*
X71393334Y8542778D02*
X71297778Y8495000D01*
X71060000Y8495000D01*
X70964445Y8542778D01*
X70916667Y8638333D01*
X70916667Y8732778D01*
X70964445Y8828333D01*
X71060000Y8876111D01*
X71297778Y8876111D01*
X71393334Y8923889D01*
X72270001Y8495000D02*
X72270001Y9495000D01*
X72270001Y8542778D02*
X72174445Y8495000D01*
X71983334Y8495000D01*
X71888890Y8542778D01*
X71841112Y8590556D01*
X71793334Y8685000D01*
X71793334Y8971667D01*
X71841112Y9066111D01*
X71888890Y9113889D01*
X71983334Y9161667D01*
X72174445Y9161667D01*
X72270001Y9113889D01*
X73098890Y8542778D02*
X73003334Y8495000D01*
X72813334Y8495000D01*
X72717779Y8542778D01*
X72670001Y8638333D01*
X72670001Y9018333D01*
X72717779Y9113889D01*
X72813334Y9161667D01*
X73003334Y9161667D01*
X73098890Y9113889D01*
X73146668Y9018333D01*
X73146668Y8923889D01*
X72670001Y8828333D01*
X74823334Y8495000D02*
X74823334Y9018333D01*
X74775556Y9113889D01*
X74680000Y9161667D01*
X74490000Y9161667D01*
X74394445Y9113889D01*
X74823334Y8542778D02*
X74727778Y8495000D01*
X74490000Y8495000D01*
X74394445Y8542778D01*
X74346667Y8638333D01*
X74346667Y8732778D01*
X74394445Y8828333D01*
X74490000Y8876111D01*
X74727778Y8876111D01*
X74823334Y8923889D01*
X75223334Y9161667D02*
X75604445Y9161667D01*
X75366667Y9495000D02*
X75366667Y8638333D01*
X75413334Y8542778D01*
X75508890Y8495000D01*
X75604445Y8495000D01*
X70468889Y7110556D02*
X70421111Y7062778D01*
X70278889Y7015000D01*
X70183333Y7015000D01*
X70040000Y7062778D01*
X69945556Y7158333D01*
X69897778Y7252778D01*
X69850000Y7443889D01*
X69850000Y7586111D01*
X69897778Y7777222D01*
X69945556Y7871667D01*
X70040000Y7967222D01*
X70183333Y8015000D01*
X70278889Y8015000D01*
X70421111Y7967222D01*
X70468889Y7919444D01*
X71058889Y7015000D02*
X70964445Y7062778D01*
X70916667Y7110556D01*
X70868889Y7205000D01*
X70868889Y7491667D01*
X70916667Y7586111D01*
X70964445Y7633889D01*
X71058889Y7681667D01*
X71202222Y7681667D01*
X71297778Y7633889D01*
X71345556Y7586111D01*
X71392222Y7491667D01*
X71392222Y7205000D01*
X71345556Y7110556D01*
X71297778Y7062778D01*
X71202222Y7015000D01*
X71058889Y7015000D01*
X71792222Y7015000D02*
X71792222Y7681667D01*
X71792222Y7491667D02*
X71840000Y7586111D01*
X71887778Y7633889D01*
X71982222Y7681667D01*
X72077778Y7681667D01*
X72906667Y7062778D02*
X72811111Y7015000D01*
X72621111Y7015000D01*
X72525556Y7062778D01*
X72477778Y7158333D01*
X72477778Y7538333D01*
X72525556Y7633889D01*
X72621111Y7681667D01*
X72811111Y7681667D01*
X72906667Y7633889D01*
X72954445Y7538333D01*
X72954445Y7443889D01*
X72477778Y7348333D01*
X73831112Y7015000D02*
X73831112Y8015000D01*
X73831112Y7062778D02*
X73735556Y7015000D01*
X73544445Y7015000D01*
X73450001Y7062778D01*
X73402223Y7110556D01*
X73354445Y7205000D01*
X73354445Y7491667D01*
X73402223Y7586111D01*
X73450001Y7633889D01*
X73544445Y7681667D01*
X73735556Y7681667D01*
X73831112Y7633889D01*
X74660001Y7681667D02*
X74660001Y7015000D01*
X74231112Y7681667D02*
X74231112Y7158333D01*
X74278890Y7062778D01*
X74374445Y7015000D01*
X74516668Y7015000D01*
X74612223Y7062778D01*
X74660001Y7110556D01*
X75060001Y7015000D02*
X75060001Y7681667D01*
X75060001Y7586111D02*
X75107779Y7633889D01*
X75203334Y7681667D01*
X75345557Y7681667D01*
X75441112Y7633889D01*
X75488890Y7538333D01*
X75488890Y7015000D01*
X75488890Y7538333D02*
X75536668Y7633889D01*
X75631112Y7681667D01*
X75774445Y7681667D01*
X75870001Y7633889D01*
X75916668Y7538333D01*
X75916668Y7015000D01*
X76316668Y7681667D02*
X76316668Y6681667D01*
X76316668Y7633889D02*
X76412224Y7681667D01*
X76602224Y7681667D01*
X76697779Y7633889D01*
X76745557Y7586111D01*
X76793335Y7491667D01*
X76793335Y7205000D01*
X76745557Y7110556D01*
X76697779Y7062778D01*
X76602224Y7015000D01*
X76412224Y7015000D01*
X76316668Y7062778D01*
D21*
G04 #@! TO.C,LED2*
X92075000Y23275000D03*
X92075000Y21175000D03*
D15*
G04 #@! TO.C,R1*
X86360000Y21150000D03*
X86360000Y23300000D03*
D13*
G04 #@! TO.C,DS2*
X44640000Y28320000D03*
X46390000Y20320000D03*
X44640000Y12320000D03*
X40640000Y29320000D03*
X46390000Y24820000D03*
X36640000Y28320000D03*
X34890000Y15820000D03*
X34890000Y20320000D03*
X36640000Y12320000D03*
X34890000Y24820000D03*
X40640000Y11320000D03*
X46390000Y15820000D03*
D14*
G04 #@! TD*
X40640000Y20320000D03*
D19*
G04 #@! TO.C,U3*
X11430000Y48259984D03*
X24130000Y40639984D03*
X8890000Y40639984D03*
D20*
X24130000Y48259984D03*
D19*
X8890000Y48259984D03*
X19050000Y48259984D03*
X21590000Y48259984D03*
X19050000Y40639984D03*
X6350000Y48259984D03*
X16510000Y40639984D03*
X21590000Y40639984D03*
X13970000Y48259984D03*
X13970000Y40639984D03*
X16510000Y48259984D03*
X11430000Y40639984D03*
X6350000Y40639984D03*
D11*
G04 #@! TO.C,LOGO1*
G36*
X68370000Y3510000D02*
X68790000Y3510000D01*
X68790000Y3310000D01*
X68370000Y3310000D01*
X68370000Y3510000D01*
G37*
G36*
X67210000Y4870000D02*
X67410000Y4870000D01*
X67410000Y5290000D01*
X67210000Y5290000D01*
X67210000Y4870000D01*
G37*
G36*
X66810000Y4870000D02*
X67010000Y4870000D01*
X67010000Y5290000D01*
X66810000Y5290000D01*
X66810000Y4870000D01*
G37*
G36*
X66250000Y4310000D02*
X65830000Y4310000D01*
X65830000Y4110000D01*
X66250000Y4110000D01*
X66250000Y4310000D01*
G37*
G36*
X67210000Y2750000D02*
X67410000Y2750000D01*
X67410000Y2330000D01*
X67210000Y2330000D01*
X67210000Y2750000D01*
G37*
G36*
X66675000Y4657000D02*
X67945000Y4657000D01*
G02*
X68157000Y4445000I0J-212000D01*
G01*
X68157000Y3175000D01*
G02*
X67945000Y2963000I-212000J0D01*
G01*
X66675000Y2963000D01*
G02*
X66463000Y3175000I0J212000D01*
G01*
X66463000Y4275000D01*
X66678000Y4275000D01*
G03*
X66845000Y4108000I167000J0D01*
G01*
G03*
X67012000Y4275000I0J167000D01*
G01*
G03*
X66845000Y4442000I-167000J0D01*
G01*
G03*
X66678000Y4275000I0J-167000D01*
G01*
X66463000Y4275000D01*
X66463000Y4445000D01*
G02*
X66675000Y4657000I212000J0D01*
G01*
G37*
G36*
X68370000Y4310000D02*
X68790000Y4310000D01*
X68790000Y4110000D01*
X68370000Y4110000D01*
X68370000Y4310000D01*
G37*
G36*
X67610000Y4870000D02*
X67810000Y4870000D01*
X67810000Y5290000D01*
X67610000Y5290000D01*
X67610000Y4870000D01*
G37*
G36*
X66250000Y3910000D02*
X65830000Y3910000D01*
X65830000Y3710000D01*
X66250000Y3710000D01*
X66250000Y3910000D01*
G37*
G36*
X66810000Y2750000D02*
X67010000Y2750000D01*
X67010000Y2330000D01*
X66810000Y2330000D01*
X66810000Y2750000D01*
G37*
G36*
X66250000Y3510000D02*
X65830000Y3510000D01*
X65830000Y3310000D01*
X66250000Y3310000D01*
X66250000Y3510000D01*
G37*
G36*
X67610000Y2750000D02*
X67810000Y2750000D01*
X67810000Y2330000D01*
X67610000Y2330000D01*
X67610000Y2750000D01*
G37*
G36*
X68370000Y3910000D02*
X68790000Y3910000D01*
X68790000Y3710000D01*
X68370000Y3710000D01*
X68370000Y3910000D01*
G37*
D10*
X69850000Y4050000D02*
X69850000Y5050000D01*
X70183333Y4335556D01*
X70516667Y5050000D01*
X70516667Y4050000D01*
X71393334Y4050000D02*
X71393334Y4573333D01*
X71345556Y4668889D01*
X71250000Y4716667D01*
X71060000Y4716667D01*
X70964445Y4668889D01*
X71393334Y4097778D02*
X71297778Y4050000D01*
X71060000Y4050000D01*
X70964445Y4097778D01*
X70916667Y4193333D01*
X70916667Y4287778D01*
X70964445Y4383333D01*
X71060000Y4431111D01*
X71297778Y4431111D01*
X71393334Y4478889D01*
X72270001Y4050000D02*
X72270001Y5050000D01*
X72270001Y4097778D02*
X72174445Y4050000D01*
X71983334Y4050000D01*
X71888890Y4097778D01*
X71841112Y4145556D01*
X71793334Y4240000D01*
X71793334Y4526667D01*
X71841112Y4621111D01*
X71888890Y4668889D01*
X71983334Y4716667D01*
X72174445Y4716667D01*
X72270001Y4668889D01*
X73098890Y4097778D02*
X73003334Y4050000D01*
X72813334Y4050000D01*
X72717779Y4097778D01*
X72670001Y4193333D01*
X72670001Y4573333D01*
X72717779Y4668889D01*
X72813334Y4716667D01*
X73003334Y4716667D01*
X73098890Y4668889D01*
X73146668Y4573333D01*
X73146668Y4478889D01*
X72670001Y4383333D01*
X74346667Y4716667D02*
X74536667Y4050000D01*
X74727778Y4526667D01*
X74917778Y4050000D01*
X75108889Y4716667D01*
X75556667Y4050000D02*
X75556667Y4716667D01*
X75556667Y5050000D02*
X75508889Y5002222D01*
X75556667Y4954444D01*
X75604445Y5002222D01*
X75556667Y5050000D01*
X75556667Y4954444D01*
X76004445Y4716667D02*
X76385556Y4716667D01*
X76147778Y5050000D02*
X76147778Y4193333D01*
X76194445Y4097778D01*
X76290001Y4050000D01*
X76385556Y4050000D01*
X76785556Y4050000D02*
X76785556Y5050000D01*
X77214445Y4050000D02*
X77214445Y4573333D01*
X77166667Y4668889D01*
X77071112Y4716667D01*
X76928889Y4716667D01*
X76833334Y4668889D01*
X76785556Y4621111D01*
X70326667Y2570000D02*
X69850000Y2570000D01*
X69850000Y3570000D01*
X70774445Y2570000D02*
X70774445Y3236667D01*
X70774445Y3570000D02*
X70726667Y3522222D01*
X70774445Y3474444D01*
X70822223Y3522222D01*
X70774445Y3570000D01*
X70774445Y3474444D01*
X71222223Y2570000D02*
X71222223Y3570000D01*
X71222223Y3188889D02*
X71317779Y3236667D01*
X71507779Y3236667D01*
X71603334Y3188889D01*
X71651112Y3141111D01*
X71698890Y3046667D01*
X71698890Y2760000D01*
X71651112Y2665556D01*
X71603334Y2617778D01*
X71507779Y2570000D01*
X71317779Y2570000D01*
X71222223Y2617778D01*
X72098890Y2570000D02*
X72098890Y3236667D01*
X72098890Y3046667D02*
X72146668Y3141111D01*
X72194446Y3188889D01*
X72288890Y3236667D01*
X72384446Y3236667D01*
X73213335Y2617778D02*
X73117779Y2570000D01*
X72927779Y2570000D01*
X72832224Y2617778D01*
X72784446Y2713333D01*
X72784446Y3093333D01*
X72832224Y3188889D01*
X72927779Y3236667D01*
X73117779Y3236667D01*
X73213335Y3188889D01*
X73261113Y3093333D01*
X73261113Y2998889D01*
X72784446Y2903333D01*
X73661113Y2570000D02*
X73661113Y3570000D01*
X74042224Y3570000D01*
X74137780Y3522222D01*
X74184446Y3474444D01*
X74232224Y3380000D01*
X74232224Y3236667D01*
X74184446Y3141111D01*
X74137780Y3093333D01*
X74042224Y3046667D01*
X73661113Y3046667D01*
X75251113Y2665556D02*
X75203335Y2617778D01*
X75061113Y2570000D01*
X74965557Y2570000D01*
X74822224Y2617778D01*
X74727780Y2713333D01*
X74680002Y2807778D01*
X74632224Y2998889D01*
X74632224Y3141111D01*
X74680002Y3332222D01*
X74727780Y3426667D01*
X74822224Y3522222D01*
X74965557Y3570000D01*
X75061113Y3570000D01*
X75203335Y3522222D01*
X75251113Y3474444D01*
X75984446Y3093333D02*
X76127780Y3046667D01*
X76174446Y2998889D01*
X76222224Y2903333D01*
X76222224Y2760000D01*
X76174446Y2665556D01*
X76127780Y2617778D01*
X76032224Y2570000D01*
X75651113Y2570000D01*
X75651113Y3570000D01*
X75984446Y3570000D01*
X76080002Y3522222D01*
X76127780Y3474444D01*
X76174446Y3380000D01*
X76174446Y3284444D01*
X76127780Y3188889D01*
X76080002Y3141111D01*
X75984446Y3093333D01*
X75651113Y3093333D01*
D22*
G04 #@! TO.C,S1*
X76199936Y15620000D03*
X76199936Y25020000D03*
X76199936Y20320000D03*
D23*
G04 #@! TO.C,U5*
X35560000Y58460000D03*
X20320000Y76240000D03*
X43180000Y76240000D03*
X38100000Y58460000D03*
X30480000Y76240000D03*
X40640000Y58460000D03*
X30480000Y58460000D03*
X43180000Y58460000D03*
X35560000Y76240000D03*
X33020000Y76240000D03*
X25400000Y58460000D03*
X27940000Y58460000D03*
X38100000Y76240000D03*
X22860000Y58460000D03*
X22860000Y76240000D03*
X40640000Y76240000D03*
X25400000Y76240000D03*
X33020000Y58460000D03*
X20320000Y58460000D03*
X17780000Y58460000D03*
X27940000Y76240000D03*
X15240000Y58460000D03*
D24*
G04 #@! TO.C,U1*
X67030992Y42428192D03*
X69570992Y42428192D03*
X65040992Y66928192D03*
X67580992Y66928192D03*
X64490992Y42428192D03*
D21*
G04 #@! TO.C,LED1*
X83820000Y23275000D03*
X83820000Y21175000D03*
D25*
G04 #@! TO.C,C4*
X63995000Y15240000D03*
X66815000Y15240000D03*
D26*
G04 #@! TO.C,C2*
X54610688Y25895448D03*
X54610688Y28715448D03*
D27*
G04 #@! TO.C,J1*
X92311168Y10160064D03*
X88811168Y14960064D03*
X85811168Y10160064D03*
D28*
G04 #@! TD*
X59347888Y8117774D02*
X59347888Y9517774D01*
X60147444Y8117774D01*
X60147444Y9517774D01*
X60794333Y8117774D02*
X60794333Y9051107D01*
X60794333Y9517774D02*
X60727444Y9450885D01*
X60794333Y9383996D01*
X60861222Y9450885D01*
X60794333Y9517774D01*
X60794333Y9383996D01*
X61441222Y8117774D02*
X62173889Y9051107D01*
X61441222Y9051107D02*
X62173889Y8117774D01*
X62820778Y8117774D02*
X62820778Y9051107D01*
X62820778Y9517774D02*
X62753889Y9450885D01*
X62820778Y9383996D01*
X62887667Y9450885D01*
X62820778Y9517774D01*
X62820778Y9383996D01*
X64068111Y8184663D02*
X63934334Y8117774D01*
X63668334Y8117774D01*
X63534556Y8184663D01*
X63467667Y8318441D01*
X63467667Y8850441D01*
X63534556Y8984218D01*
X63668334Y9051107D01*
X63934334Y9051107D01*
X64068111Y8984218D01*
X64135000Y8850441D01*
X64135000Y8718218D01*
X63467667Y8584441D01*
X57120778Y5462665D02*
X57053890Y5395776D01*
X56854778Y5328887D01*
X56721001Y5328887D01*
X56520334Y5395776D01*
X56388112Y5529554D01*
X56321223Y5661776D01*
X56254334Y5929331D01*
X56254334Y6128443D01*
X56321223Y6395998D01*
X56388112Y6528220D01*
X56520334Y6661998D01*
X56721001Y6728887D01*
X56854778Y6728887D01*
X57053890Y6661998D01*
X57120778Y6595109D01*
X57966778Y5328887D02*
X57834556Y5395776D01*
X57767667Y5462665D01*
X57700778Y5594887D01*
X57700778Y5996220D01*
X57767667Y6128443D01*
X57834556Y6195331D01*
X57966778Y6262220D01*
X58167445Y6262220D01*
X58301222Y6195331D01*
X58368111Y6128443D01*
X58433445Y5996220D01*
X58433445Y5594887D01*
X58368111Y5462665D01*
X58301222Y5395776D01*
X58167445Y5328887D01*
X57966778Y5328887D01*
X59613889Y6262220D02*
X59613889Y5328887D01*
X59013445Y6262220D02*
X59013445Y5529554D01*
X59080334Y5395776D01*
X59214112Y5328887D01*
X59413223Y5328887D01*
X59547001Y5395776D01*
X59613889Y5462665D01*
X60193889Y6262220D02*
X60193889Y5328887D01*
X60193889Y6128443D02*
X60260778Y6195331D01*
X60394556Y6262220D01*
X60593667Y6262220D01*
X60727445Y6195331D01*
X60794333Y6061554D01*
X60794333Y5328887D01*
X61374333Y6262220D02*
X61907889Y6262220D01*
X61575000Y6728887D02*
X61575000Y5529554D01*
X61640333Y5395776D01*
X61774111Y5328887D01*
X61907889Y5328887D01*
X63088333Y5395776D02*
X62954556Y5328887D01*
X62688556Y5328887D01*
X62554778Y5395776D01*
X62487889Y5529554D01*
X62487889Y6061554D01*
X62554778Y6195331D01*
X62688556Y6262220D01*
X62954556Y6262220D01*
X63088333Y6195331D01*
X63155222Y6061554D01*
X63155222Y5929331D01*
X62487889Y5795554D01*
X63735222Y5328887D02*
X63735222Y6262220D01*
X63735222Y5996220D02*
X63802111Y6128443D01*
X63869000Y6195331D01*
X64001222Y6262220D01*
X64135000Y6262220D01*
X53069002Y3473333D02*
X53401891Y2540000D01*
X53736335Y3473333D01*
X54383224Y3806222D02*
X54450113Y3873111D01*
X54582335Y3940000D01*
X54916779Y3940000D01*
X55049002Y3873111D01*
X55115891Y3806222D01*
X55182779Y3674000D01*
X55182779Y3540222D01*
X55115891Y3339556D01*
X54316335Y2540000D01*
X55182779Y2540000D01*
X55829668Y2673778D02*
X55896557Y2606889D01*
X55829668Y2540000D01*
X55762779Y2606889D01*
X55829668Y2673778D01*
X55829668Y2540000D01*
X56809446Y3940000D02*
X56943224Y3940000D01*
X57077001Y3873111D01*
X57143890Y3806222D01*
X57209224Y3674000D01*
X57276113Y3406444D01*
X57276113Y3073556D01*
X57209224Y2806000D01*
X57143890Y2673778D01*
X57077001Y2606889D01*
X56943224Y2540000D01*
X56809446Y2540000D01*
X56677224Y2606889D01*
X56610335Y2673778D01*
X56543446Y2806000D01*
X56476557Y3073556D01*
X56476557Y3406444D01*
X56543446Y3674000D01*
X56610335Y3806222D01*
X56677224Y3873111D01*
X56809446Y3940000D01*
X59063001Y3806222D02*
X59129890Y3873111D01*
X59262112Y3940000D01*
X59596556Y3940000D01*
X59728779Y3873111D01*
X59795668Y3806222D01*
X59862556Y3674000D01*
X59862556Y3540222D01*
X59795668Y3339556D01*
X58996112Y2540000D01*
X59862556Y2540000D01*
X60775445Y3940000D02*
X60909223Y3940000D01*
X61043000Y3873111D01*
X61109889Y3806222D01*
X61175223Y3674000D01*
X61242112Y3406444D01*
X61242112Y3073556D01*
X61175223Y2806000D01*
X61109889Y2673778D01*
X61043000Y2606889D01*
X60909223Y2540000D01*
X60775445Y2540000D01*
X60643223Y2606889D01*
X60576334Y2673778D01*
X60509445Y2806000D01*
X60442556Y3073556D01*
X60442556Y3406444D01*
X60509445Y3674000D01*
X60576334Y3806222D01*
X60643223Y3873111D01*
X60775445Y3940000D01*
X61889001Y3806222D02*
X61955890Y3873111D01*
X62088112Y3940000D01*
X62422556Y3940000D01*
X62554779Y3873111D01*
X62621668Y3806222D01*
X62688556Y3674000D01*
X62688556Y3540222D01*
X62621668Y3339556D01*
X61822112Y2540000D01*
X62688556Y2540000D01*
X63935889Y3473333D02*
X63935889Y2540000D01*
X63601445Y4006889D02*
X63268556Y3006667D01*
X64135000Y3006667D01*
D29*
X97000000Y3000000D03*
X3000000Y3000000D03*
X58000000Y73660000D03*
G04 --- BOARD END --- *
G04 #@! TF.MD5,aee83aefe440d85d762b968c150cdc2d*
M02*
