G04 --- HEADER BEGIN --- *
%TF.GenerationSoftware,LibrePCB,LibrePCB,0.1.4-unstable*%
%TF.CreationDate,2020-02-26T00:12:38*%
%TF.ProjectId,Nixie Counter - default,cfaec193-39cb-4766-881d-db9368be8cff,v1.1*%
%TF.Part,Single*%
%FSLAX66Y66*%
%MOMM*%
G01*
G74*
G04 --- HEADER END --- *
G04 --- APERTURE LIST BEGIN --- *
%ADD10C,3.2*%
%ADD11R,1.5X1.15*%
%ADD12R,1.55X2.4*%
%ADD13R,1.15X1.5*%
%ADD14R,3.45X2.35*%
%ADD15R,1.15X2.35*%
%ADD16O,1.47X2.74*%
%ADD17R,1.47X2.74*%
%ADD18C,0.0*%
%ADD19C,0.2*%
%ADD20R,1.4X1.4*%
%ADD21O,1.787X2.39*%
%ADD22R,1.787X2.39*%
%ADD23C,2.1*%
%ADD24R,2.35X3.45*%
%ADD25R,2.35X1.15*%
%ADD26O,4.2X3.2*%
%ADD27O,1.7X2.74*%
%ADD28C,5.0*%
%ADD29C,0.3*%
G04 --- APERTURE LIST END --- *
G04 --- BOARD BEGIN --- *
D10*
X19240000Y28320000D03*
X20990000Y20320000D03*
X19240000Y12320000D03*
X15240000Y29320000D03*
X20990000Y24820000D03*
X11240000Y28320000D03*
X9490000Y15820000D03*
X9490000Y20320000D03*
X11240000Y12320000D03*
X9490000Y24820000D03*
X15240000Y11320000D03*
X20990000Y15820000D03*
D11*
X96520000Y19880000D03*
X96520000Y22030000D03*
D12*
X59450000Y22365264D03*
X59450000Y19545264D03*
D13*
X64886456Y39688000D03*
X67036456Y39688000D03*
D14*
X57150720Y31475360D03*
D15*
X54850720Y25675360D03*
X57150720Y25675360D03*
X59450720Y25675360D03*
D16*
X36830000Y48384984D03*
X49530000Y40514984D03*
X34290000Y40514984D03*
D17*
X49530000Y48384984D03*
D16*
X34290000Y48384984D03*
X44450000Y48384984D03*
X46990000Y48384984D03*
X44450000Y40514984D03*
X31750000Y48384984D03*
X41910000Y40514984D03*
X46990000Y40514984D03*
X39370000Y48384984D03*
X39370000Y40514984D03*
X41910000Y48384984D03*
X36830000Y40514984D03*
X31750000Y40514984D03*
D18*
X71637500Y7760000D02*
X71627500Y7740000D01*
X71667500Y7640000D01*
X71747500Y7500000D01*
X71857500Y7350000D01*
X71977500Y7230000D01*
X72047500Y7150000D01*
X72047500Y7130000D01*
X72027500Y7130000D01*
X71997500Y7120000D01*
X71997500Y7100000D01*
X72097500Y7040000D01*
X72197500Y7000000D01*
X72237500Y7000000D01*
X72227500Y7040000D01*
X72167500Y7130000D01*
X72107500Y7200000D01*
X72067500Y7220000D01*
X72007500Y7250000D01*
X71917500Y7350000D01*
X71737500Y7610000D01*
X71637500Y7760000D01*
X71637500Y7760000D01*
G36*
X71637500Y7760000D02*
X71627500Y7740000D01*
X71667500Y7640000D01*
X71747500Y7500000D01*
X71857500Y7350000D01*
X71977500Y7230000D01*
X72047500Y7150000D01*
X72047500Y7130000D01*
X72027500Y7130000D01*
X71997500Y7120000D01*
X71997500Y7100000D01*
X72097500Y7040000D01*
X72197500Y7000000D01*
X72237500Y7000000D01*
X72227500Y7040000D01*
X72167500Y7130000D01*
X72107500Y7200000D01*
X72067500Y7220000D01*
X72007500Y7250000D01*
X71917500Y7350000D01*
X71737500Y7610000D01*
X71637500Y7760000D01*
X71637500Y7760000D01*
G37*
X72507500Y6650000D02*
X72397500Y6600000D01*
X72257500Y6580000D01*
X72047500Y6600000D01*
X71917500Y6650000D01*
X71857500Y6680000D01*
X71767500Y6740000D01*
X71687500Y6780000D01*
X71677500Y6800000D01*
X71657500Y6810000D01*
X71587500Y6860000D01*
X71547500Y6930000D01*
X71537500Y6930000D01*
X71477500Y6970000D01*
X71457500Y6990000D01*
X71467500Y6990000D01*
X71467500Y7010000D01*
X71407500Y7080000D01*
X71317500Y7180000D01*
X71307500Y7200000D01*
X71337500Y7190000D01*
X71337500Y7200000D01*
X71297500Y7240000D01*
X71237500Y7340000D01*
X71207500Y7390000D01*
X71187500Y7430000D01*
X71167500Y7480000D01*
X71147500Y7520000D01*
X71147500Y7560000D01*
X71117500Y7610000D01*
X71067500Y7840000D01*
X71057500Y8100000D01*
X71087500Y8320000D01*
X71107500Y8370000D01*
X71137500Y8430000D01*
X71167500Y8490000D01*
X71237500Y8590000D01*
X71287500Y8640000D01*
X71327500Y8650000D01*
X71347500Y8650000D01*
X71387500Y8690000D01*
X71427500Y8710000D01*
X71407500Y8660000D01*
X71337500Y8510000D01*
X71317500Y8270000D01*
X71337500Y8000000D01*
X71347500Y7880000D01*
X71327500Y7830000D01*
X71347500Y7840000D01*
X71367500Y7850000D01*
X71377500Y7840000D01*
X71377500Y7800000D01*
X71397500Y7760000D01*
X71427500Y7700000D01*
X71467500Y7590000D01*
X71497500Y7510000D01*
X71547500Y7450000D01*
X71607500Y7370000D01*
X71817500Y7090000D01*
X72007500Y6940000D01*
X72177500Y6830000D01*
X72277500Y6790000D01*
X72397500Y6740000D01*
X72527500Y6720000D01*
X72617500Y6710000D01*
X72507500Y6650000D01*
X72547500Y6610000D01*
X72697500Y6690000D01*
X72907500Y6840000D01*
X73047500Y6990000D01*
X73127500Y7150000D01*
X73167500Y7350000D01*
X73177500Y7460000D01*
X73407500Y7500000D01*
X73397500Y7520000D01*
X73377500Y7530000D01*
X73327500Y7530000D01*
X73087500Y7510000D01*
X72107500Y7510000D01*
X72057500Y7560000D01*
X71977500Y7680000D01*
X71957500Y7750000D01*
X71967500Y7800000D01*
X72397500Y7840000D01*
X72427500Y7850000D01*
X72427500Y7860000D01*
X72437500Y7870000D01*
X72477500Y7870000D01*
X72537500Y7870000D01*
X72527500Y7900000D01*
X72377500Y7920000D01*
X72357500Y7940000D01*
X72317500Y8000000D01*
X72277500Y8060000D01*
X72277500Y8100000D01*
X72297500Y8190000D01*
X72317500Y8260000D01*
X72317500Y8310000D01*
X72337500Y8340000D01*
X72387500Y8330000D01*
X72487500Y8250000D01*
X72597500Y8110000D01*
X72627500Y8040000D01*
X72677500Y7950000D01*
X72687500Y7920000D01*
X72667500Y7910000D01*
X72527500Y7900000D01*
X72537500Y7870000D01*
X72897500Y7850000D01*
X72897500Y7880000D01*
X72767500Y7910000D01*
X72687500Y8060000D01*
X72617500Y8190000D01*
X72537500Y8280000D01*
X72427500Y8380000D01*
X72317500Y8450000D01*
X72207500Y8500000D01*
X72207500Y8670000D01*
X72207500Y8850000D01*
X72257500Y8830000D01*
X72367500Y8780000D01*
X72497500Y8690000D01*
X72747500Y8430000D01*
X72927500Y8150000D01*
X73027500Y7920000D01*
X72997500Y7890000D01*
X72897500Y7880000D01*
X72897500Y7850000D01*
X73127500Y7840000D01*
X73107500Y7880000D01*
X73017500Y8070000D01*
X72857500Y8360000D01*
X72727500Y8530000D01*
X72567500Y8690000D01*
X72397500Y8820000D01*
X72257500Y8900000D01*
X72207500Y8920000D01*
X72217500Y9070000D01*
X72197500Y9210000D01*
X72157500Y9220000D01*
X72157500Y7930000D01*
X72097500Y7900000D01*
X71997500Y7890000D01*
X71877500Y7920000D01*
X71847500Y8050000D01*
X71847500Y8380000D01*
X71847500Y8610000D01*
X71787500Y8610000D01*
X71757500Y8200000D01*
X71747500Y8090000D01*
X71757500Y7980000D01*
X71837500Y7740000D01*
X71967500Y7510000D01*
X72147500Y7340000D01*
X72307500Y7260000D01*
X72447500Y7230000D01*
X72587500Y7260000D01*
X72687500Y7330000D01*
X72817500Y7460000D01*
X72947500Y7470000D01*
X73047500Y7470000D01*
X73097500Y7450000D01*
X73117500Y7400000D01*
X73107500Y7310000D01*
X73067500Y7130000D01*
X72967500Y6970000D01*
X72827500Y6850000D01*
X72637500Y6790000D01*
X72437500Y6800000D01*
X72227500Y6870000D01*
X72027500Y7000000D01*
X71837500Y7180000D01*
X71667500Y7390000D01*
X71527500Y7640000D01*
X71427500Y7920000D01*
X71397500Y8100000D01*
X71397500Y8300000D01*
X71417500Y8490000D01*
X71467500Y8650000D01*
X71547500Y8770000D01*
X71657500Y8870000D01*
X71737500Y8920000D01*
X71777500Y8920000D01*
X71787500Y8870000D01*
X71787500Y8610000D01*
X71847500Y8610000D01*
X71837500Y9100000D01*
X71837500Y9270000D01*
X71817500Y9320000D01*
X71797500Y9150000D01*
X71787500Y9020000D01*
X71737500Y8980000D01*
X71427500Y8800000D01*
X71167500Y8610000D01*
X71087500Y8490000D01*
X71027500Y8350000D01*
X70997500Y8190000D01*
X70977500Y8010000D01*
X70977500Y7880000D01*
X70797500Y7840000D01*
X70797500Y7810000D01*
X70997500Y7810000D01*
X71057500Y7540000D01*
X70897500Y7500000D01*
X70797500Y7460000D01*
X70827500Y7450000D01*
X70887500Y7450000D01*
X71107500Y7460000D01*
X71137500Y7380000D01*
X71237500Y7200000D01*
X71387500Y7000000D01*
X71557500Y6810000D01*
X71707500Y6690000D01*
X71797500Y6630000D01*
X71787500Y6360000D01*
X71807500Y6130000D01*
X71847500Y6170000D01*
X71857500Y6370000D01*
X71867500Y6480000D01*
X71877500Y6560000D01*
X71897500Y6580000D01*
X72047500Y6540000D01*
X72167500Y6500000D01*
X72167500Y6350000D01*
X72157500Y6210000D01*
X72207500Y6230000D01*
X72207500Y6370000D01*
X72207500Y6390000D01*
X72217500Y6460000D01*
X72217500Y6410000D01*
X72207500Y6370000D01*
X72217500Y6440000D01*
X72237500Y6500000D01*
X72287500Y6510000D01*
X72457500Y6550000D01*
X72547500Y6610000D01*
X72507500Y6650000D01*
G36*
X72507500Y6650000D02*
X72397500Y6600000D01*
X72257500Y6580000D01*
X72047500Y6600000D01*
X71917500Y6650000D01*
X71857500Y6680000D01*
X71767500Y6740000D01*
X71687500Y6780000D01*
X71677500Y6800000D01*
X71657500Y6810000D01*
X71587500Y6860000D01*
X71547500Y6930000D01*
X71537500Y6930000D01*
X71477500Y6970000D01*
X71457500Y6990000D01*
X71467500Y6990000D01*
X71467500Y7010000D01*
X71407500Y7080000D01*
X71317500Y7180000D01*
X71307500Y7200000D01*
X71337500Y7190000D01*
X71337500Y7200000D01*
X71297500Y7240000D01*
X71237500Y7340000D01*
X71207500Y7390000D01*
X71187500Y7430000D01*
X71167500Y7480000D01*
X71147500Y7520000D01*
X71147500Y7560000D01*
X71117500Y7610000D01*
X71067500Y7840000D01*
X71057500Y8100000D01*
X71087500Y8320000D01*
X71107500Y8370000D01*
X71137500Y8430000D01*
X71167500Y8490000D01*
X71237500Y8590000D01*
X71287500Y8640000D01*
X71327500Y8650000D01*
X71347500Y8650000D01*
X71387500Y8690000D01*
X71427500Y8710000D01*
X71407500Y8660000D01*
X71337500Y8510000D01*
X71317500Y8270000D01*
X71337500Y8000000D01*
X71347500Y7880000D01*
X71327500Y7830000D01*
X71347500Y7840000D01*
X71367500Y7850000D01*
X71377500Y7840000D01*
X71377500Y7800000D01*
X71397500Y7760000D01*
X71427500Y7700000D01*
X71467500Y7590000D01*
X71497500Y7510000D01*
X71547500Y7450000D01*
X71607500Y7370000D01*
X71817500Y7090000D01*
X72007500Y6940000D01*
X72177500Y6830000D01*
X72277500Y6790000D01*
X72397500Y6740000D01*
X72527500Y6720000D01*
X72617500Y6710000D01*
X72507500Y6650000D01*
X72547500Y6610000D01*
X72697500Y6690000D01*
X72907500Y6840000D01*
X73047500Y6990000D01*
X73127500Y7150000D01*
X73167500Y7350000D01*
X73177500Y7460000D01*
X73407500Y7500000D01*
X73397500Y7520000D01*
X73377500Y7530000D01*
X73327500Y7530000D01*
X73087500Y7510000D01*
X72107500Y7510000D01*
X72057500Y7560000D01*
X71977500Y7680000D01*
X71957500Y7750000D01*
X71967500Y7800000D01*
X72397500Y7840000D01*
X72427500Y7850000D01*
X72427500Y7860000D01*
X72437500Y7870000D01*
X72477500Y7870000D01*
X72537500Y7870000D01*
X72527500Y7900000D01*
X72377500Y7920000D01*
X72357500Y7940000D01*
X72317500Y8000000D01*
X72277500Y8060000D01*
X72277500Y8100000D01*
X72297500Y8190000D01*
X72317500Y8260000D01*
X72317500Y8310000D01*
X72337500Y8340000D01*
X72387500Y8330000D01*
X72487500Y8250000D01*
X72597500Y8110000D01*
X72627500Y8040000D01*
X72677500Y7950000D01*
X72687500Y7920000D01*
X72667500Y7910000D01*
X72527500Y7900000D01*
X72537500Y7870000D01*
X72897500Y7850000D01*
X72897500Y7880000D01*
X72767500Y7910000D01*
X72687500Y8060000D01*
X72617500Y8190000D01*
X72537500Y8280000D01*
X72427500Y8380000D01*
X72317500Y8450000D01*
X72207500Y8500000D01*
X72207500Y8670000D01*
X72207500Y8850000D01*
X72257500Y8830000D01*
X72367500Y8780000D01*
X72497500Y8690000D01*
X72747500Y8430000D01*
X72927500Y8150000D01*
X73027500Y7920000D01*
X72997500Y7890000D01*
X72897500Y7880000D01*
X72897500Y7850000D01*
X73127500Y7840000D01*
X73107500Y7880000D01*
X73017500Y8070000D01*
X72857500Y8360000D01*
X72727500Y8530000D01*
X72567500Y8690000D01*
X72397500Y8820000D01*
X72257500Y8900000D01*
X72207500Y8920000D01*
X72217500Y9070000D01*
X72197500Y9210000D01*
X72157500Y9220000D01*
X72157500Y7930000D01*
X72097500Y7900000D01*
X71997500Y7890000D01*
X71877500Y7920000D01*
X71847500Y8050000D01*
X71847500Y8380000D01*
X71847500Y8610000D01*
X71787500Y8610000D01*
X71757500Y8200000D01*
X71747500Y8090000D01*
X71757500Y7980000D01*
X71837500Y7740000D01*
X71967500Y7510000D01*
X72147500Y7340000D01*
X72307500Y7260000D01*
X72447500Y7230000D01*
X72587500Y7260000D01*
X72687500Y7330000D01*
X72817500Y7460000D01*
X72947500Y7470000D01*
X73047500Y7470000D01*
X73097500Y7450000D01*
X73117500Y7400000D01*
X73107500Y7310000D01*
X73067500Y7130000D01*
X72967500Y6970000D01*
X72827500Y6850000D01*
X72637500Y6790000D01*
X72437500Y6800000D01*
X72227500Y6870000D01*
X72027500Y7000000D01*
X71837500Y7180000D01*
X71667500Y7390000D01*
X71527500Y7640000D01*
X71427500Y7920000D01*
X71397500Y8100000D01*
X71397500Y8300000D01*
X71417500Y8490000D01*
X71467500Y8650000D01*
X71547500Y8770000D01*
X71657500Y8870000D01*
X71737500Y8920000D01*
X71777500Y8920000D01*
X71787500Y8870000D01*
X71787500Y8610000D01*
X71847500Y8610000D01*
X71837500Y9100000D01*
X71837500Y9270000D01*
X71817500Y9320000D01*
X71797500Y9150000D01*
X71787500Y9020000D01*
X71737500Y8980000D01*
X71427500Y8800000D01*
X71167500Y8610000D01*
X71087500Y8490000D01*
X71027500Y8350000D01*
X70997500Y8190000D01*
X70977500Y8010000D01*
X70977500Y7880000D01*
X70797500Y7840000D01*
X70797500Y7810000D01*
X70997500Y7810000D01*
X71057500Y7540000D01*
X70897500Y7500000D01*
X70797500Y7460000D01*
X70827500Y7450000D01*
X70887500Y7450000D01*
X71107500Y7460000D01*
X71137500Y7380000D01*
X71237500Y7200000D01*
X71387500Y7000000D01*
X71557500Y6810000D01*
X71707500Y6690000D01*
X71797500Y6630000D01*
X71787500Y6360000D01*
X71807500Y6130000D01*
X71847500Y6170000D01*
X71857500Y6370000D01*
X71867500Y6480000D01*
X71877500Y6560000D01*
X71897500Y6580000D01*
X72047500Y6540000D01*
X72167500Y6500000D01*
X72167500Y6350000D01*
X72157500Y6210000D01*
X72207500Y6230000D01*
X72207500Y6370000D01*
X72207500Y6390000D01*
X72217500Y6460000D01*
X72217500Y6410000D01*
X72207500Y6370000D01*
X72217500Y6440000D01*
X72237500Y6500000D01*
X72287500Y6510000D01*
X72457500Y6550000D01*
X72547500Y6610000D01*
X72507500Y6650000D01*
G37*
X73007500Y7410000D02*
X72817500Y7220000D01*
X72847500Y7220000D01*
X72867500Y7220000D01*
X72877500Y7210000D01*
X72827500Y7150000D01*
X72697500Y7080000D01*
X72537500Y7050000D01*
X72447500Y7030000D01*
X72477500Y7010000D01*
X72567500Y7010000D01*
X72737500Y7040000D01*
X72867500Y7130000D01*
X72947500Y7180000D01*
X72967500Y7200000D01*
X72987500Y7290000D01*
X73007500Y7410000D01*
X73007500Y7410000D01*
G36*
X73007500Y7410000D02*
X72817500Y7220000D01*
X72847500Y7220000D01*
X72867500Y7220000D01*
X72877500Y7210000D01*
X72827500Y7150000D01*
X72697500Y7080000D01*
X72537500Y7050000D01*
X72447500Y7030000D01*
X72477500Y7010000D01*
X72567500Y7010000D01*
X72737500Y7040000D01*
X72867500Y7130000D01*
X72947500Y7180000D01*
X72967500Y7200000D01*
X72987500Y7290000D01*
X73007500Y7410000D01*
X73007500Y7410000D01*
G37*
X71677500Y8620000D02*
X71647500Y8610000D01*
X71597500Y8510000D01*
X71567500Y8370000D01*
X71557500Y8340000D01*
X71527500Y8320000D01*
X71497500Y8300000D01*
X71497500Y8280000D01*
X71517500Y8170000D01*
X71537500Y8080000D01*
X71577500Y8070000D01*
X71607500Y8130000D01*
X71647500Y8290000D01*
X71637500Y8320000D01*
X71617500Y8330000D01*
X71607500Y8380000D01*
X71647500Y8520000D01*
X71677500Y8590000D01*
X71677500Y8620000D01*
X71677500Y8620000D01*
G36*
X71677500Y8620000D02*
X71647500Y8610000D01*
X71597500Y8510000D01*
X71567500Y8370000D01*
X71557500Y8340000D01*
X71527500Y8320000D01*
X71497500Y8300000D01*
X71497500Y8280000D01*
X71517500Y8170000D01*
X71537500Y8080000D01*
X71577500Y8070000D01*
X71607500Y8130000D01*
X71647500Y8290000D01*
X71637500Y8320000D01*
X71617500Y8330000D01*
X71607500Y8380000D01*
X71647500Y8520000D01*
X71677500Y8590000D01*
X71677500Y8620000D01*
X71677500Y8620000D01*
G37*
X72277500Y8670000D02*
X72347500Y8560000D01*
X72447500Y8460000D01*
X72457500Y8480000D01*
X72467500Y8500000D01*
X72527500Y8460000D01*
X72617500Y8370000D01*
X72767500Y8170000D01*
X72827500Y8080000D01*
X72847500Y8070000D01*
X72857500Y8090000D01*
X72757500Y8250000D01*
X72587500Y8460000D01*
X72507500Y8560000D01*
X72527500Y8580000D01*
X72407500Y8640000D01*
X72277500Y8670000D01*
X72277500Y8670000D01*
G36*
X72277500Y8670000D02*
X72347500Y8560000D01*
X72447500Y8460000D01*
X72457500Y8480000D01*
X72467500Y8500000D01*
X72527500Y8460000D01*
X72617500Y8370000D01*
X72767500Y8170000D01*
X72827500Y8080000D01*
X72847500Y8070000D01*
X72857500Y8090000D01*
X72757500Y8250000D01*
X72587500Y8460000D01*
X72507500Y8560000D01*
X72527500Y8580000D01*
X72407500Y8640000D01*
X72277500Y8670000D01*
X72277500Y8670000D01*
G37*
D19*
X74172500Y7860000D02*
X74172500Y8860000D01*
X74505833Y8145556D01*
X74839167Y8860000D01*
X74839167Y7860000D01*
X75715834Y7860000D02*
X75715834Y8383333D01*
X75668056Y8478889D01*
X75572500Y8526667D01*
X75382500Y8526667D01*
X75286945Y8478889D01*
X75715834Y7907778D02*
X75620278Y7860000D01*
X75382500Y7860000D01*
X75286945Y7907778D01*
X75239167Y8003333D01*
X75239167Y8097778D01*
X75286945Y8193333D01*
X75382500Y8241111D01*
X75620278Y8241111D01*
X75715834Y8288889D01*
X76592501Y7860000D02*
X76592501Y8860000D01*
X76592501Y7907778D02*
X76496945Y7860000D01*
X76305834Y7860000D01*
X76211390Y7907778D01*
X76163612Y7955556D01*
X76115834Y8050000D01*
X76115834Y8336667D01*
X76163612Y8431111D01*
X76211390Y8478889D01*
X76305834Y8526667D01*
X76496945Y8526667D01*
X76592501Y8478889D01*
X77421390Y7907778D02*
X77325834Y7860000D01*
X77135834Y7860000D01*
X77040279Y7907778D01*
X76992501Y8003333D01*
X76992501Y8383333D01*
X77040279Y8478889D01*
X77135834Y8526667D01*
X77325834Y8526667D01*
X77421390Y8478889D01*
X77469168Y8383333D01*
X77469168Y8288889D01*
X76992501Y8193333D01*
X78764723Y8145556D02*
X79240278Y8145556D01*
X78669167Y7860000D02*
X79002500Y8860000D01*
X79335834Y7860000D01*
X79735834Y8526667D02*
X80116945Y8526667D01*
X79879167Y8860000D02*
X79879167Y8003333D01*
X79925834Y7907778D01*
X80021390Y7860000D01*
X80116945Y7860000D01*
X74791389Y6475556D02*
X74743611Y6427778D01*
X74601389Y6380000D01*
X74505833Y6380000D01*
X74362500Y6427778D01*
X74268056Y6523333D01*
X74220278Y6617778D01*
X74172500Y6808889D01*
X74172500Y6951111D01*
X74220278Y7142222D01*
X74268056Y7236667D01*
X74362500Y7332222D01*
X74505833Y7380000D01*
X74601389Y7380000D01*
X74743611Y7332222D01*
X74791389Y7284444D01*
X75381389Y6380000D02*
X75286945Y6427778D01*
X75239167Y6475556D01*
X75191389Y6570000D01*
X75191389Y6856667D01*
X75239167Y6951111D01*
X75286945Y6998889D01*
X75381389Y7046667D01*
X75524722Y7046667D01*
X75620278Y6998889D01*
X75668056Y6951111D01*
X75714722Y6856667D01*
X75714722Y6570000D01*
X75668056Y6475556D01*
X75620278Y6427778D01*
X75524722Y6380000D01*
X75381389Y6380000D01*
X76114722Y6380000D02*
X76114722Y7046667D01*
X76114722Y6856667D02*
X76162500Y6951111D01*
X76210278Y6998889D01*
X76304722Y7046667D01*
X76400278Y7046667D01*
X77229167Y6427778D02*
X77133611Y6380000D01*
X76943611Y6380000D01*
X76848056Y6427778D01*
X76800278Y6523333D01*
X76800278Y6903333D01*
X76848056Y6998889D01*
X76943611Y7046667D01*
X77133611Y7046667D01*
X77229167Y6998889D01*
X77276945Y6903333D01*
X77276945Y6808889D01*
X76800278Y6713333D01*
X78153612Y6380000D02*
X78153612Y7380000D01*
X78153612Y6427778D02*
X78058056Y6380000D01*
X77866945Y6380000D01*
X77772501Y6427778D01*
X77724723Y6475556D01*
X77676945Y6570000D01*
X77676945Y6856667D01*
X77724723Y6951111D01*
X77772501Y6998889D01*
X77866945Y7046667D01*
X78058056Y7046667D01*
X78153612Y6998889D01*
X78982501Y7046667D02*
X78982501Y6380000D01*
X78553612Y7046667D02*
X78553612Y6523333D01*
X78601390Y6427778D01*
X78696945Y6380000D01*
X78839168Y6380000D01*
X78934723Y6427778D01*
X78982501Y6475556D01*
X79382501Y6380000D02*
X79382501Y7046667D01*
X79382501Y6951111D02*
X79430279Y6998889D01*
X79525834Y7046667D01*
X79668057Y7046667D01*
X79763612Y6998889D01*
X79811390Y6903333D01*
X79811390Y6380000D01*
X79811390Y6903333D02*
X79859168Y6998889D01*
X79953612Y7046667D01*
X80096945Y7046667D01*
X80192501Y6998889D01*
X80239168Y6903333D01*
X80239168Y6380000D01*
X80639168Y7046667D02*
X80639168Y6046667D01*
X80639168Y6998889D02*
X80734724Y7046667D01*
X80924724Y7046667D01*
X81020279Y6998889D01*
X81068057Y6951111D01*
X81115835Y6856667D01*
X81115835Y6570000D01*
X81068057Y6475556D01*
X81020279Y6427778D01*
X80924724Y6380000D01*
X80734724Y6380000D01*
X80639168Y6427778D01*
D20*
X93980000Y22005000D03*
X93980000Y19905000D03*
D21*
X56515760Y6985104D03*
X59055760Y9525104D03*
X64135760Y9525104D03*
X61595760Y9525104D03*
X64135760Y6985104D03*
X59055760Y6985104D03*
X61595760Y6985104D03*
D22*
X56515760Y9525104D03*
D11*
X88900000Y19880000D03*
X88900000Y22030000D03*
D23*
X15240000Y58420000D03*
X40640000Y58420000D03*
X50800000Y58420000D03*
X45720000Y58420000D03*
X30480000Y73660000D03*
X45720000Y73660000D03*
X27940000Y58420000D03*
X7620000Y58420000D03*
X17780000Y58420000D03*
X53340000Y73660000D03*
X27940000Y73660000D03*
X35560000Y58420000D03*
X5080000Y73660000D03*
X35560000Y73660000D03*
X43180000Y58420000D03*
X25400000Y73660000D03*
X5080000Y58420000D03*
X50800000Y73660000D03*
X30480000Y58420000D03*
X33020000Y73660000D03*
X17780000Y73660000D03*
X12700000Y58420000D03*
X20320000Y58420000D03*
X10160000Y73660000D03*
X38100000Y58420000D03*
X40640000Y73660000D03*
X53340000Y58420000D03*
X22860000Y58420000D03*
X25400000Y58420000D03*
X48260000Y73660000D03*
X43180000Y73660000D03*
X38100000Y73660000D03*
X10160000Y58420000D03*
X15240000Y73660000D03*
X20320000Y73660000D03*
X12700000Y73660000D03*
X33020000Y58420000D03*
X7620000Y73660000D03*
X22860000Y73660000D03*
X48260000Y58420000D03*
D10*
X44640000Y28320000D03*
X46390000Y20320000D03*
X44640000Y12320000D03*
X40640000Y29320000D03*
X46390000Y24820000D03*
X36640000Y28320000D03*
X34890000Y15820000D03*
X34890000Y20320000D03*
X36640000Y12320000D03*
X34890000Y24820000D03*
X40640000Y11320000D03*
X46390000Y15820000D03*
D16*
X11430000Y48384984D03*
X24130000Y40514984D03*
X8890000Y40514984D03*
D17*
X24130000Y48384984D03*
D16*
X8890000Y48384984D03*
X19050000Y48384984D03*
X21590000Y48384984D03*
X19050000Y40514984D03*
X6350000Y48384984D03*
X16510000Y40514984D03*
X21590000Y40514984D03*
X13970000Y48384984D03*
X13970000Y40514984D03*
X16510000Y48384984D03*
X11430000Y40514984D03*
X6350000Y40514984D03*
D24*
X52186250Y49847500D03*
D25*
X57986250Y47547500D03*
X57986250Y49847500D03*
X57986250Y52147500D03*
D18*
X75037500Y3192500D02*
X75457500Y3192500D01*
X75457500Y2992500D01*
X75037500Y2992500D01*
X75037500Y3192500D01*
G36*
X75037500Y3192500D02*
X75457500Y3192500D01*
X75457500Y2992500D01*
X75037500Y2992500D01*
X75037500Y3192500D01*
G37*
X73877500Y4552500D02*
X74077500Y4552500D01*
X74077500Y4972500D01*
X73877500Y4972500D01*
X73877500Y4552500D01*
G36*
X73877500Y4552500D02*
X74077500Y4552500D01*
X74077500Y4972500D01*
X73877500Y4972500D01*
X73877500Y4552500D01*
G37*
X73477500Y4552500D02*
X73677500Y4552500D01*
X73677500Y4972500D01*
X73477500Y4972500D01*
X73477500Y4552500D01*
G36*
X73477500Y4552500D02*
X73677500Y4552500D01*
X73677500Y4972500D01*
X73477500Y4972500D01*
X73477500Y4552500D01*
G37*
X72917500Y3992500D02*
X72497500Y3992500D01*
X72497500Y3792500D01*
X72917500Y3792500D01*
X72917500Y3992500D01*
G36*
X72917500Y3992500D02*
X72497500Y3992500D01*
X72497500Y3792500D01*
X72917500Y3792500D01*
X72917500Y3992500D01*
G37*
X73877500Y2432500D02*
X74077500Y2432500D01*
X74077500Y2012500D01*
X73877500Y2012500D01*
X73877500Y2432500D01*
G36*
X73877500Y2432500D02*
X74077500Y2432500D01*
X74077500Y2012500D01*
X73877500Y2012500D01*
X73877500Y2432500D01*
G37*
X73342500Y4339500D02*
X74612500Y4339500D01*
G75*
G02*
X74824500Y4127500I0J-212000D01*
G01*
X74824500Y2857500D01*
G02*
X74612500Y2645500I-212000J0D01*
G01*
X73342500Y2645500D01*
G02*
X73130500Y2857500I0J212000D01*
G01*
X73130500Y3957500D01*
X73345500Y3957500D01*
G03*
X73512500Y3790500I167000J0D01*
G01*
G03*
X73679500Y3957500I0J167000D01*
G01*
G03*
X73512500Y4124500I-167000J0D01*
G01*
G03*
X73345500Y3957500I0J-167000D01*
G01*
X73130500Y3957500D01*
X73130500Y4127500D01*
G02*
X73342500Y4339500I212000J0D01*
G01*
G36*
X73342500Y4339500D02*
X74612500Y4339500D01*
G02*
X74824500Y4127500I0J-212000D01*
G01*
X74824500Y2857500D01*
G02*
X74612500Y2645500I-212000J0D01*
G01*
X73342500Y2645500D01*
G02*
X73130500Y2857500I0J212000D01*
G01*
X73130500Y3957500D01*
X73345500Y3957500D01*
G03*
X73512500Y3790500I167000J0D01*
G01*
G03*
X73679500Y3957500I0J167000D01*
G01*
G03*
X73512500Y4124500I-167000J0D01*
G01*
G03*
X73345500Y3957500I0J-167000D01*
G01*
X73130500Y3957500D01*
X73130500Y4127500D01*
G02*
X73342500Y4339500I212000J0D01*
G01*
G37*
X75037500Y3992500D02*
X75457500Y3992500D01*
X75457500Y3792500D01*
X75037500Y3792500D01*
X75037500Y3992500D01*
G36*
X75037500Y3992500D02*
X75457500Y3992500D01*
X75457500Y3792500D01*
X75037500Y3792500D01*
X75037500Y3992500D01*
G37*
X74277500Y4552500D02*
X74477500Y4552500D01*
X74477500Y4972500D01*
X74277500Y4972500D01*
X74277500Y4552500D01*
G36*
X74277500Y4552500D02*
X74477500Y4552500D01*
X74477500Y4972500D01*
X74277500Y4972500D01*
X74277500Y4552500D01*
G37*
X72917500Y3592500D02*
X72497500Y3592500D01*
X72497500Y3392500D01*
X72917500Y3392500D01*
X72917500Y3592500D01*
G36*
X72917500Y3592500D02*
X72497500Y3592500D01*
X72497500Y3392500D01*
X72917500Y3392500D01*
X72917500Y3592500D01*
G37*
X73477500Y2432500D02*
X73677500Y2432500D01*
X73677500Y2012500D01*
X73477500Y2012500D01*
X73477500Y2432500D01*
G36*
X73477500Y2432500D02*
X73677500Y2432500D01*
X73677500Y2012500D01*
X73477500Y2012500D01*
X73477500Y2432500D01*
G37*
X72917500Y3192500D02*
X72497500Y3192500D01*
X72497500Y2992500D01*
X72917500Y2992500D01*
X72917500Y3192500D01*
G36*
X72917500Y3192500D02*
X72497500Y3192500D01*
X72497500Y2992500D01*
X72917500Y2992500D01*
X72917500Y3192500D01*
G37*
X74277500Y2432500D02*
X74477500Y2432500D01*
X74477500Y2012500D01*
X74277500Y2012500D01*
X74277500Y2432500D01*
G36*
X74277500Y2432500D02*
X74477500Y2432500D01*
X74477500Y2012500D01*
X74277500Y2012500D01*
X74277500Y2432500D01*
G37*
X75037500Y3592500D02*
X75457500Y3592500D01*
X75457500Y3392500D01*
X75037500Y3392500D01*
X75037500Y3592500D01*
G36*
X75037500Y3592500D02*
X75457500Y3592500D01*
X75457500Y3392500D01*
X75037500Y3392500D01*
X75037500Y3592500D01*
G37*
D19*
X76077500Y3732500D02*
X76077500Y4732500D01*
X76410833Y4018056D01*
X76744167Y4732500D01*
X76744167Y3732500D01*
X77620834Y3732500D02*
X77620834Y4255833D01*
X77573056Y4351389D01*
X77477500Y4399167D01*
X77287500Y4399167D01*
X77191945Y4351389D01*
X77620834Y3780278D02*
X77525278Y3732500D01*
X77287500Y3732500D01*
X77191945Y3780278D01*
X77144167Y3875833D01*
X77144167Y3970278D01*
X77191945Y4065833D01*
X77287500Y4113611D01*
X77525278Y4113611D01*
X77620834Y4161389D01*
X78497501Y3732500D02*
X78497501Y4732500D01*
X78497501Y3780278D02*
X78401945Y3732500D01*
X78210834Y3732500D01*
X78116390Y3780278D01*
X78068612Y3828056D01*
X78020834Y3922500D01*
X78020834Y4209167D01*
X78068612Y4303611D01*
X78116390Y4351389D01*
X78210834Y4399167D01*
X78401945Y4399167D01*
X78497501Y4351389D01*
X79326390Y3780278D02*
X79230834Y3732500D01*
X79040834Y3732500D01*
X78945279Y3780278D01*
X78897501Y3875833D01*
X78897501Y4255833D01*
X78945279Y4351389D01*
X79040834Y4399167D01*
X79230834Y4399167D01*
X79326390Y4351389D01*
X79374168Y4255833D01*
X79374168Y4161389D01*
X78897501Y4065833D01*
X80574167Y4732500D02*
X80811945Y3732500D01*
X81003056Y4446944D01*
X81193056Y3732500D01*
X81430834Y4732500D01*
X81878612Y3732500D02*
X81878612Y4399167D01*
X81878612Y4732500D02*
X81830834Y4684722D01*
X81878612Y4636944D01*
X81926390Y4684722D01*
X81878612Y4732500D01*
X81878612Y4636944D01*
X82326390Y4399167D02*
X82707501Y4399167D01*
X82469723Y4732500D02*
X82469723Y3875833D01*
X82516390Y3780278D01*
X82611946Y3732500D01*
X82707501Y3732500D01*
X83107501Y3732500D02*
X83107501Y4732500D01*
X83536390Y3732500D02*
X83536390Y4255833D01*
X83488612Y4351389D01*
X83393057Y4399167D01*
X83250834Y4399167D01*
X83155279Y4351389D01*
X83107501Y4303611D01*
X76554167Y2252500D02*
X76077500Y2252500D01*
X76077500Y3252500D01*
X77001945Y2252500D02*
X77001945Y2919167D01*
X77001945Y3252500D02*
X76954167Y3204722D01*
X77001945Y3156944D01*
X77049723Y3204722D01*
X77001945Y3252500D01*
X77001945Y3156944D01*
X77449723Y2252500D02*
X77449723Y3252500D01*
X77449723Y2871389D02*
X77545279Y2919167D01*
X77735279Y2919167D01*
X77830834Y2871389D01*
X77878612Y2823611D01*
X77926390Y2729167D01*
X77926390Y2442500D01*
X77878612Y2348056D01*
X77830834Y2300278D01*
X77735279Y2252500D01*
X77545279Y2252500D01*
X77449723Y2300278D01*
X78326390Y2252500D02*
X78326390Y2919167D01*
X78326390Y2729167D02*
X78374168Y2823611D01*
X78421946Y2871389D01*
X78516390Y2919167D01*
X78611946Y2919167D01*
X79440835Y2300278D02*
X79345279Y2252500D01*
X79155279Y2252500D01*
X79059724Y2300278D01*
X79011946Y2395833D01*
X79011946Y2775833D01*
X79059724Y2871389D01*
X79155279Y2919167D01*
X79345279Y2919167D01*
X79440835Y2871389D01*
X79488613Y2775833D01*
X79488613Y2681389D01*
X79011946Y2585833D01*
X79888613Y2252500D02*
X79888613Y3252500D01*
X80269724Y3252500D01*
X80365280Y3204722D01*
X80411946Y3156944D01*
X80459724Y3062500D01*
X80459724Y2919167D01*
X80411946Y2823611D01*
X80365280Y2775833D01*
X80269724Y2729167D01*
X79888613Y2729167D01*
X81478613Y2348056D02*
X81430835Y2300278D01*
X81288613Y2252500D01*
X81193057Y2252500D01*
X81049724Y2300278D01*
X80955280Y2395833D01*
X80907502Y2490278D01*
X80859724Y2681389D01*
X80859724Y2823611D01*
X80907502Y3014722D01*
X80955280Y3109167D01*
X81049724Y3204722D01*
X81193057Y3252500D01*
X81288613Y3252500D01*
X81430835Y3204722D01*
X81478613Y3156944D01*
X82211946Y2775833D02*
X82355280Y2729167D01*
X82401946Y2681389D01*
X82449724Y2585833D01*
X82449724Y2442500D01*
X82401946Y2348056D01*
X82355280Y2300278D01*
X82259724Y2252500D01*
X81878613Y2252500D01*
X81878613Y3252500D01*
X82211946Y3252500D01*
X82307502Y3204722D01*
X82355280Y3156944D01*
X82401946Y3062500D01*
X82401946Y2966944D01*
X82355280Y2871389D01*
X82307502Y2823611D01*
X82211946Y2775833D01*
X81878613Y2775833D01*
D12*
X58420736Y43955544D03*
X58420736Y41135544D03*
D26*
X76199936Y15620000D03*
X76199936Y25020000D03*
X76199936Y20320000D03*
D27*
X67030992Y42428192D03*
X69570992Y42428192D03*
X65040992Y66928192D03*
X67580992Y66928192D03*
X64490992Y42428192D03*
D20*
X86360000Y22005000D03*
X86360000Y19905000D03*
D12*
X58420736Y57010736D03*
X58420736Y59830736D03*
X54610688Y34785448D03*
X54610688Y37605448D03*
D28*
X92311168Y10160064D03*
X88811168Y14960064D03*
X85811168Y10160064D03*
D29*
X88875388Y30025274D02*
X88875388Y31425274D01*
X89674944Y30025274D01*
X89674944Y31425274D01*
X90321833Y30025274D02*
X90321833Y30958607D01*
X90321833Y31425274D02*
X90254944Y31358385D01*
X90321833Y31291496D01*
X90388722Y31358385D01*
X90321833Y31425274D01*
X90321833Y31291496D01*
X90968722Y30025274D02*
X91701389Y30958607D01*
X90968722Y30958607D02*
X91701389Y30025274D01*
X92348278Y30025274D02*
X92348278Y30958607D01*
X92348278Y31425274D02*
X92281389Y31358385D01*
X92348278Y31291496D01*
X92415167Y31358385D01*
X92348278Y31425274D01*
X92348278Y31291496D01*
X93595611Y30092163D02*
X93461834Y30025274D01*
X93195834Y30025274D01*
X93062056Y30092163D01*
X92995167Y30225941D01*
X92995167Y30757941D01*
X93062056Y30891718D01*
X93195834Y30958607D01*
X93461834Y30958607D01*
X93595611Y30891718D01*
X93662500Y30757941D01*
X93662500Y30625718D01*
X92995167Y30491941D01*
X86648278Y27370165D02*
X86581390Y27303276D01*
X86382278Y27236387D01*
X86248501Y27236387D01*
X86047834Y27303276D01*
X85915612Y27437054D01*
X85848723Y27569276D01*
X85781834Y27836831D01*
X85781834Y28035943D01*
X85848723Y28303498D01*
X85915612Y28435720D01*
X86047834Y28569498D01*
X86248501Y28636387D01*
X86382278Y28636387D01*
X86581390Y28569498D01*
X86648278Y28502609D01*
X87494278Y27236387D02*
X87362056Y27303276D01*
X87295167Y27370165D01*
X87228278Y27502387D01*
X87228278Y27903720D01*
X87295167Y28035943D01*
X87362056Y28102831D01*
X87494278Y28169720D01*
X87694945Y28169720D01*
X87828722Y28102831D01*
X87895611Y28035943D01*
X87960945Y27903720D01*
X87960945Y27502387D01*
X87895611Y27370165D01*
X87828722Y27303276D01*
X87694945Y27236387D01*
X87494278Y27236387D01*
X89141389Y28169720D02*
X89141389Y27236387D01*
X88540945Y28169720D02*
X88540945Y27437054D01*
X88607834Y27303276D01*
X88741612Y27236387D01*
X88940723Y27236387D01*
X89074501Y27303276D01*
X89141389Y27370165D01*
X89721389Y28169720D02*
X89721389Y27236387D01*
X89721389Y28035943D02*
X89788278Y28102831D01*
X89922056Y28169720D01*
X90121167Y28169720D01*
X90254945Y28102831D01*
X90321833Y27969054D01*
X90321833Y27236387D01*
X90901833Y28169720D02*
X91435389Y28169720D01*
X91102500Y28636387D02*
X91102500Y27437054D01*
X91167833Y27303276D01*
X91301611Y27236387D01*
X91435389Y27236387D01*
X92615833Y27303276D02*
X92482056Y27236387D01*
X92216056Y27236387D01*
X92082278Y27303276D01*
X92015389Y27437054D01*
X92015389Y27969054D01*
X92082278Y28102831D01*
X92216056Y28169720D01*
X92482056Y28169720D01*
X92615833Y28102831D01*
X92682722Y27969054D01*
X92682722Y27836831D01*
X92015389Y27703054D01*
X93262722Y27236387D02*
X93262722Y28169720D01*
X93262722Y27903720D02*
X93329611Y28035943D01*
X93396500Y28102831D01*
X93528722Y28169720D01*
X93662500Y28169720D01*
X89522277Y25380833D02*
X89855166Y24447500D01*
X90189610Y25380833D01*
X91569166Y24447500D02*
X90769610Y24447500D01*
X91169388Y24447500D02*
X91169388Y25847500D01*
X91035610Y25646833D01*
X90903388Y25514611D01*
X90769610Y25447722D01*
X92216055Y24581278D02*
X92282944Y24514389D01*
X92216055Y24447500D01*
X92149166Y24514389D01*
X92216055Y24581278D01*
X92216055Y24447500D01*
X93662500Y24447500D02*
X92862944Y24447500D01*
X93262722Y24447500D02*
X93262722Y25847500D01*
X93128944Y25646833D01*
X92996722Y25514611D01*
X92862944Y25447722D01*
G04 --- BOARD END --- *
%TF.MD5,0060f005305bffd82fa7a8fdb5f2a1e8*%
M02*
